<svg xmlns="http://www.w3.org/2000/svg" xmlns:xlink="http://www.w3.org/1999/xlink" width="1616" height="1992" viewBox="0 0 1616 1992">
  <defs>
    <filter id="Union_6" x="1316" y="1492.5" width="300" height="196" filterUnits="userSpaceOnUse">
      <feOffset dy="10" input="SourceAlpha"/>
      <feGaussianBlur stdDeviation="3.5" result="blur"/>
      <feFlood flood-opacity="0.161"/>
      <feComposite operator="in" in2="blur"/>
      <feComposite in="SourceGraphic"/>
    </filter>
    <filter id="Union_4" x="1164" y="154.5" width="412" height="266" filterUnits="userSpaceOnUse">
      <feOffset dy="10" input="SourceAlpha"/>
      <feGaussianBlur stdDeviation="3.5" result="blur-2"/>
      <feFlood flood-opacity="0.161"/>
      <feComposite operator="in" in2="blur-2"/>
      <feComposite in="SourceGraphic"/>
    </filter>
    <filter id="Union_8" x="0" y="294.5" width="283" height="185" filterUnits="userSpaceOnUse">
      <feOffset dy="10" input="SourceAlpha"/>
      <feGaussianBlur stdDeviation="3.5" result="blur-3"/>
      <feFlood flood-opacity="0.161"/>
      <feComposite operator="in" in2="blur-3"/>
      <feComposite in="SourceGraphic"/>
    </filter>
    <filter id="Union_5" x="287" y="1212.5" width="412" height="266" filterUnits="userSpaceOnUse">
      <feOffset dy="10" input="SourceAlpha"/>
      <feGaussianBlur stdDeviation="3.5" result="blur-4"/>
      <feFlood flood-opacity="0.161"/>
      <feComposite operator="in" in2="blur-4"/>
      <feComposite in="SourceGraphic"/>
    </filter>
  </defs>
  <g id="Group_119" data-name="Group 119" transform="translate(-113.5 -694)">
    <g transform="matrix(1, 0, 0, 1, 113.5, 694)" filter="url(#Union_6)">
      <g id="Union_6-2" data-name="Union 6" transform="translate(1326.5 1493)" fill="#fff">
        <path d="M 212.6390380859375 170 C 205.8486480712891 170 199.1797637939453 168.8983459472656 192.8175811767578 166.7256164550781 C 186.6663055419922 164.6249237060547 180.9056549072266 161.5624237060547 175.6956939697266 157.6231994628906 L 172.6801605224609 155.3431549072266 L 169.6646118164063 157.6231994628906 C 164.4546508789063 161.5624237060547 158.6940460205078 164.6249237060547 152.542724609375 166.7256164550781 C 146.1805725097656 168.8983459472656 139.5116577148438 170 132.7212677001953 170 C 127.2409210205078 170 121.807731628418 169.2771148681641 116.5725784301758 167.8514251708984 C 111.4977340698242 166.4693908691406 106.6103057861328 164.4286956787109 102.0461120605469 161.7860412597656 L 99.540771484375 160.3354644775391 L 97.03542327880859 161.7860412597656 C 92.47126770019531 164.4286956787109 87.58388519287109 166.4693908691406 82.50900268554688 167.8514251708984 C 77.27388763427734 169.2771148681641 71.84065246582031 170 66.36030578613281 170 C 58.07519149780273 170 50.04050064086914 168.3767700195313 42.47942352294922 165.1754302978516 C 38.84476852416992 163.6365051269531 35.33872985839844 161.7314605712891 32.05873107910156 159.5132751464844 C 28.80846214294434 157.315185546875 25.75188446044922 154.7906494140625 22.97388458251953 152.0098114013672 C 20.19580841064453 149.2288513183594 17.67376899719238 146.1690063476563 15.47776889801025 142.9152374267578 C 13.26157665252686 139.6314239501953 11.35823059082031 136.1213531494141 9.82069206237793 132.4823913574219 C 6.621922969818115 124.9119262695313 5 116.8671951293945 5 108.5716171264648 C 5 100.4708480834961 6.548807621002197 92.60115051269531 9.603384971618652 85.18115234375 C 12.55446147918701 78.01253509521484 16.79088401794434 71.53430938720703 22.19492340087891 65.92646026611328 C 24.85653877258301 63.16446304321289 27.78977012634277 60.63992309570313 30.91311454772949 58.4229621887207 C 34.06115341186523 56.18846130371094 37.43242263793945 54.24523162841797 40.93326950073242 52.64723205566406 C 48.19577026367188 49.33219146728516 55.94684600830078 47.49573135375977 63.97119140625 47.18880844116211 L 67.24223327636719 47.06369400024414 L 68.43584442138672 44.0156135559082 C 70.65122985839844 38.35826873779297 73.69561767578125 33.0653076171875 77.48445892333984 28.28376960754395 C 81.24188232421875 23.54184532165527 85.66288757324219 19.38807678222656 90.62469482421875 15.93788433074951 C 100.9153823852539 8.782269477844238 113.0047302246094 5 125.585807800293 5 C 132.3119964599609 5 138.9209594726563 6.081192493438721 145.2290802001953 8.21353816986084 C 151.3286895751953 10.27542304992676 157.0498504638672 13.28346157073975 162.2335357666016 17.15415382385254 C 167.3611907958984 20.98299980163574 171.8452758789063 25.56634521484375 175.5611877441406 30.77684593200684 C 179.3240814208984 36.05311584472656 182.2109680175781 41.85142135620117 184.1417236328125 48.01069259643555 L 185.7335052490234 53.08853912353516 L 190.7024688720703 51.18380737304688 C 197.6971130371094 48.50261688232422 205.0776519775391 47.14311599731445 212.6390380859375 47.14311599731445 C 220.9243011474609 47.14311599731445 228.9591522216797 48.7663459777832 236.5203399658203 51.96773147583008 C 240.1550445556641 53.50665283203125 243.6611175537109 55.41169357299805 246.9411468505859 57.6298828125 C 250.1914215087891 59.82796096801758 253.2480316162109 62.35250091552734 256.0260314941406 65.13338470458984 C 258.8041687011719 67.914306640625 261.3262329101563 70.97415161132813 263.5221862792969 74.22795867919922 C 265.7384338378906 77.51173400878906 267.6417236328125 81.02184295654297 269.1793212890625 84.66080474853516 C 272.3780822753906 92.23126983642578 274 100.2760391235352 274 108.5716171264648 C 274 116.8671951293945 272.3780822753906 124.9119644165039 269.1793212890625 132.4823913574219 C 267.6417236328125 136.1213073730469 265.7384338378906 139.6314239501953 263.5221862792969 142.9152374267578 C 261.3262329101563 146.1690063476563 258.8041687011719 149.2288513183594 256.0260314941406 152.009765625 C 253.2480316162109 154.7906494140625 250.1914215087891 157.3151550292969 246.9411468505859 159.5132293701172 C 243.6611175537109 161.7314605712891 240.1550445556641 163.6365051269531 236.5203399658203 165.1753845214844 C 228.9591522216797 168.3767700195313 220.9243011474609 170 212.6390380859375 170 Z" stroke="none"/>
        <path d="M 212.6390380859375 165 C 243.7165985107422 165 269 139.6863250732422 269 108.5715942382813 C 269 77.45681762695313 243.7165985107422 52.14313507080078 212.6390380859375 52.14313507080078 C 205.6916351318359 52.14313507080078 198.9132232666016 53.39118194580078 192.4921417236328 55.85254669189453 L 182.5542297363281 59.66204452514648 L 179.3706817626953 49.50631713867188 C 171.9632720947266 25.87636375427246 150.3488159179688 10 125.5858154296875 10 C 102.2223205566406 10 81.61708831787109 24.06754493713379 73.09159088134766 45.83881759643555 L 70.70436096191406 51.93490982055664 L 64.16226959228516 52.18513488769531 C 33.79090881347656 53.34677124023438 10 78.11463928222656 10 108.5715942382813 C 10 139.6863250732422 35.28313446044922 165 66.36032104492188 165 C 76.26863861083984 165 86.00959014892578 162.3923645019531 94.53009033203125 157.4589996337891 L 99.540771484375 154.5578155517578 L 104.5514526367188 157.4589996337891 C 113.0719528198242 162.3923645019531 122.8129119873047 165 132.7212677001953 165 C 145.0834503173828 165 156.8155059814453 161.0700073242188 166.6491394042969 153.6348571777344 L 172.68017578125 149.0748596191406 L 178.7112731933594 153.6349029541016 C 188.5448150634766 161.0700073242188 200.2768707275391 165 212.6390380859375 165 M 212.6390380859375 175 C 197.6360473632813 175 183.7953643798828 170.0156402587891 172.68017578125 161.6114959716797 C 161.5649566650391 170.0156402587891 147.7242736816406 175 132.7212677001953 175 C 120.6350021362305 175 109.3010482788086 171.7642669677734 99.540771484375 166.1130981445313 C 89.78050231933594 171.7642669677734 78.44659423828125 175 66.36032104492188 175 C 29.7106819152832 175 0 145.2588195800781 0 108.5715942382813 C 0 72.74868011474609 28.32550048828125 43.54850006103516 63.78009033203125 42.19245529174805 C 73.45345306396484 17.48999977111816 97.47850036621094 0 125.5858154296875 0 C 155.3054962158203 0 180.4617767333984 19.55586433410645 188.9128112792969 46.51509094238281 C 196.2799530029297 43.69104385375977 204.2796783447266 42.14313507080078 212.6390380859375 42.14313507080078 C 249.2893676757813 42.14313507080078 279 71.88431549072266 279 108.5715942382813 C 279 145.2588195800781 249.2893676757813 175 212.6390380859375 175 Z" stroke="none" fill="#231f20"/>
      </g>
    </g>
    <line id="Line_24" data-name="Line 24" y2="1887" transform="translate(238.5 763.5)" fill="none" stroke="#13ffbf" stroke-linecap="round" stroke-width="15"/>
    <g id="Ellipse_79" data-name="Ellipse 79" transform="translate(182 1320)" fill="#003cff" stroke="#13ffbf" stroke-width="15">
      <circle cx="56.5" cy="56.5" r="56.5" stroke="none"/>
      <circle cx="56.5" cy="56.5" r="49" fill="none"/>
    </g>
    <g id="Ellipse_109" data-name="Ellipse 109" transform="translate(182 694)" fill="#003cff" stroke="#13ffbf" stroke-width="15">
      <circle cx="56.5" cy="56.5" r="56.5" stroke="none"/>
      <circle cx="56.5" cy="56.5" r="49" fill="none"/>
    </g>
    <g id="Ellipse_80" data-name="Ellipse 80" transform="translate(182 1689)" fill="#003cff" stroke="#13ffbf" stroke-width="15">
      <circle cx="56.5" cy="56.5" r="56.5" stroke="none"/>
      <circle cx="56.5" cy="56.5" r="49" fill="none"/>
    </g>
    <g id="Ellipse_81" data-name="Ellipse 81" transform="translate(182 2573)" fill="#003cff" stroke="#13ffbf" stroke-width="15">
      <circle cx="56.5" cy="56.5" r="56.5" stroke="none"/>
      <circle cx="56.5" cy="56.5" r="49" fill="none"/>
    </g>
    <g transform="matrix(1, 0, 0, 1, 113.5, 694)" filter="url(#Union_4)">
      <g id="Union_4-2" data-name="Union 4" transform="translate(1174.5 155)" fill="#fff">
        <path d="M 297.99951171875 240 C 288.2615661621094 240 278.6968383789063 238.4213714599609 269.5708923339844 235.3080596923828 C 260.7477416992188 232.2979431152344 252.4854278564453 227.9101104736328 245.0133666992188 222.2663116455078 L 241.9997863769531 219.9901123046875 L 238.9862060546875 222.2663116455078 C 231.51416015625 227.9101104736328 223.2518463134766 232.2979431152344 214.4286804199219 235.3080596923828 C 205.3027954101563 238.4213714599609 195.7380065917969 240 186.0000457763672 240 C 178.1411590576172 240 170.3489990234375 238.9642181396484 162.8401031494141 236.9213714599609 C 155.5604248046875 234.9409484863281 148.5498962402344 232.0167846679688 142.0032653808594 228.2301635742188 L 139.4998474121094 226.7821502685547 L 136.9964141845703 228.2301635742188 C 130.4497833251953 232.0167846679688 123.439208984375 234.9409484863281 116.1595230102539 236.9213714599609 C 108.650634765625 238.9642181396484 100.8584747314453 240 92.99958038330078 240 C 87.02568054199219 240 81.05699920654297 239.3984680175781 75.25936889648438 238.2120513916016 C 69.61163330078125 237.0563659667969 64.05631256103516 235.3318939208984 58.7477912902832 233.0865783691406 C 53.53452682495117 230.8815307617188 48.50594711303711 228.1520538330078 43.80173873901367 224.9739532470703 C 39.14094924926758 221.8251647949219 34.7579460144043 218.2087860107422 30.77457809448242 214.2253723144531 C 26.79115867614746 210.241943359375 23.17484283447266 205.8589935302734 20.02605247497559 201.1981506347656 C 16.84794807434082 196.4939422607422 14.11847400665283 191.4653625488281 11.91342067718506 186.2521057128906 C 9.668105125427246 180.9435729980469 7.943631649017334 175.3882598876953 6.787947177886963 169.7405242919922 C 5.601526260375977 163.9428405761719 5 157.9741516113281 5 152.0002593994141 C 5 140.3973083496094 7.221158027648926 129.1241607666016 11.6017894744873 118.493896484375 C 13.70878982543945 113.3808975219727 16.31947326660156 108.4371032714844 19.36120986938477 103.7997894287109 C 22.37368392944336 99.20720672607422 25.83789443969727 94.87084197998047 29.65763092041016 90.91110229492188 C 33.47410583496094 86.95473480224609 37.68015670776367 83.33842468261719 42.1589469909668 80.16262817382813 C 46.67373657226563 76.96126556396484 51.50889587402344 74.17710876464844 56.53005218505859 71.88752746582031 C 66.94773864746094 67.13716125488281 78.06547546386719 64.50557708740234 89.57447052001953 64.06584167480469 L 92.84442138671875 63.94089508056641 L 94.03868103027344 60.89426422119141 C 97.21578979492188 52.78936767578125 101.5815277099609 45.20679092407227 107.0146331787109 38.35715866088867 C 112.4023666381836 31.56468391418457 118.7417373657227 25.61468505859375 125.8566284179688 20.6723690032959 C 140.6167907714844 10.41942119598389 157.9561004638672 5 176.0001525878906 5 C 185.64599609375 5 195.1247406005859 6.549263000488281 204.1731109619141 9.604789733886719 C 212.9222564697266 12.55921077728271 221.1280059814453 16.86910438537598 228.5623626708984 22.41473770141602 C 235.9149932861328 27.89936828613281 242.3447418212891 34.46463012695313 247.6729431152344 41.92826461791992 C 253.0690460205078 49.48694610595703 257.2091674804688 57.79378890991211 259.9781494140625 66.61810302734375 L 261.5704345703125 71.6922607421875 L 266.5368347167969 69.79047393798828 C 276.5699462890625 65.94841766357422 287.155517578125 64.0003662109375 297.99951171875 64.0003662109375 C 303.9735412597656 64.0003662109375 309.9423217773438 64.60189819335938 315.7400512695313 65.78831481933594 C 321.3879089355469 66.94400024414063 326.9432678222656 68.66847229003906 332.2518310546875 70.91384124755859 C 337.4651489257813 73.11884307861328 342.4937744140625 75.84836578369141 347.1980590820313 79.02647399902344 C 351.85888671875 82.17526245117188 356.2418823242188 85.79158020019531 360.2253112792969 89.77500152587891 C 364.2088012695313 93.75847625732422 367.8251037597656 98.14147186279297 370.9739379882813 102.8022613525391 C 374.1520385742188 107.506477355957 376.8815307617188 112.5351028442383 379.0865783691406 117.7483673095703 C 381.3319091796875 123.0568923950195 383.0563659667969 128.6122131347656 384.2120666503906 134.2599945068359 C 385.3984680175781 140.0576324462891 386 146.0263214111328 386 152.0002593994141 C 386 157.9741516113281 385.3984680175781 163.9428405761719 384.2120666503906 169.7405242919922 C 383.0563659667969 175.3882598876953 381.3319091796875 180.9435729980469 379.0865783691406 186.2521057128906 C 376.8815307617188 191.4653625488281 374.1520385742188 196.4939422607422 370.9739379882813 201.1981506347656 C 367.8251037597656 205.8589477539063 364.2088012695313 210.241943359375 360.2253723144531 214.2253723144531 C 356.2418823242188 218.2087860107422 351.85888671875 221.8251647949219 347.1980590820313 224.9739532470703 C 342.4937744140625 228.1520538330078 337.4651489257813 230.8815307617188 332.2518310546875 233.0865783691406 C 326.9432678222656 235.3318939208984 321.3879089355469 237.0563659667969 315.7400512695313 238.2120513916016 C 309.9423217773438 239.3984680175781 303.9735412597656 240 297.99951171875 240 Z" stroke="none"/>
        <path d="M 297.9995422363281 235 C 343.76611328125 235 381 197.7664642333984 381 152.0002288818359 C 381 106.2339401245117 343.76611328125 69.00035095214844 297.9995422363281 69.00035095214844 C 287.7690734863281 69.00035095214844 277.7850646972656 70.83717346191406 268.3248901367188 74.45982360839844 L 258.3919982910156 78.26347351074219 L 255.2074737548828 68.11511993408203 C 244.2998199462891 33.35464859008789 212.4688873291016 10 176.0001831054688 10 C 141.5922393798828 10 111.2477035522461 30.6934700012207 98.69382476806641 62.71905899047852 L 96.3052978515625 68.81229400634766 L 89.76535034179688 69.06217956542969 C 45.03711700439453 70.7711181640625 10 107.2018814086914 10 152.0002288818359 C 10 197.7664642333984 47.23347091674805 235 92.99958801269531 235 C 107.592529296875 235 121.9407043457031 231.162353515625 134.4929351806641 223.9019927978516 L 139.4998168945313 221.0059967041016 L 144.5066986083984 223.9019927978516 C 157.0589447021484 231.162353515625 171.4071197509766 235 186.0000610351563 235 C 204.2077026367188 235 221.4880065917969 229.2171173095703 235.9727020263672 218.2765350341797 L 241.9998168945313 213.72412109375 L 248.0269470214844 218.2765350341797 C 262.5116577148438 229.2171173095703 279.7918701171875 235 297.9995422363281 235 M 297.9995422363281 245 C 276.9738159179688 245 257.5770568847656 238.0219421386719 241.9998168945313 226.2561187744141 C 226.4225311279297 238.0219421386719 207.0257720947266 245 186.0000610351563 245 C 169.0619354248047 245 153.1781768798828 240.4700012207031 139.4998168945313 232.5582885742188 C 125.8214721679688 240.4700012207031 109.9377059936523 245 92.99958801269531 245 C 41.63753128051758 245 0 203.3623504638672 0 152.0002288818359 C 0 101.8481140136719 39.69629287719727 60.9678840637207 89.38359069824219 59.0694694519043 C 102.9401779174805 24.48594093322754 136.6096496582031 0 176.0001831054688 0 C 217.6503601074219 0 252.9052429199219 27.37817573547363 264.748779296875 65.12111663818359 C 275.0733642578125 61.1674690246582 286.284423828125 59.0003547668457 297.9995422363281 59.0003547668457 C 349.3624572753906 59.0003547668457 391 100.6380615234375 391 152.0002288818359 C 391 203.3623504638672 349.3624572753906 245 297.9995422363281 245 Z" stroke="none" fill="#231f20"/>
      </g>
    </g>
    <g transform="matrix(1, 0, 0, 1, 113.5, 694)" filter="url(#Union_8)">
      <g id="Union_8-2" data-name="Union 8" transform="translate(10.5 295)" fill="#fff">
        <path d="M 199.6825714111328 159 C 193.3384246826172 159 187.1080017089844 157.9729156494141 181.1643524169922 155.9473114013672 C 175.4180755615234 153.9889678955078 170.0368499755859 151.1340026855469 165.1699981689453 147.4618072509766 L 162.1584167480469 145.1894226074219 L 159.1468505859375 147.4618072509766 C 154.2799987792969 151.1340026855469 148.8987731933594 153.9889678955078 143.1524963378906 155.9473114013672 C 137.2088775634766 157.9729156494141 130.9784240722656 159 124.6343078613281 159 C 119.5140380859375 159 114.4380035400391 158.3260345458984 109.5471572875977 156.9968414306641 C 104.8063430786133 155.7084197998047 100.2407302856445 153.8059997558594 95.97707366943359 151.3424224853516 L 93.47557830810547 149.8970336914063 L 90.97407531738281 151.3424224853516 C 86.71046447753906 153.8059997558594 82.14484405517578 155.7084197998047 77.40403747558594 156.9968414306641 C 72.51319122314453 158.3260345458984 67.43715667724609 159 62.3168830871582 159 C 54.57634735107422 159 47.07003784179688 157.4866943359375 40.00646209716797 154.5021209716797 C 36.61115264892578 153.0674591064453 33.33603668212891 151.2915802001953 30.27203941345215 149.2236938476563 C 27.2359619140625 147.1746520996094 24.38084602355957 144.8213500976563 21.78596115112305 142.2291564941406 C 19.19115447998047 139.6369934082031 16.83553886413574 136.7849578857422 14.78453826904297 133.752197265625 C 12.71484661102295 130.6917724609375 10.93734645843506 127.4205017089844 9.501500129699707 124.0292282104492 C 6.514538288116455 116.9745025634766 5 109.4777297973633 5 101.7471160888672 C 5 94.19803619384766 6.446269035339355 86.86438751220703 9.298577308654785 79.94988250732422 C 12.0545768737793 73.26888275146484 16.01115417480469 67.23111724853516 21.05838394165039 62.00426864624023 C 26.09784698486328 56.78546142578125 31.98696136474609 52.6206169128418 38.56211471557617 49.6254997253418 C 45.34665298461914 46.53499984741211 52.58784484863281 44.82288360595703 60.08453750610352 44.5367317199707 L 63.35338592529297 44.4119987487793 L 64.54834747314453 41.36680603027344 C 66.61719512939453 36.09442138671875 69.46038818359375 31.16150093078613 72.99884796142578 26.70503807067871 C 76.50846099853516 22.28496170043945 80.63800048828125 18.41303825378418 85.27272796630859 15.19688415527344 C 94.88596343994141 8.52603816986084 106.1799240112305 5 117.9336166381836 5 C 124.2177658081055 5 130.3921966552734 6.007999897003174 136.2853393554688 7.995999813079834 C 141.9833526611328 9.918153762817383 147.3277282714844 12.72234630584717 152.1699676513672 16.33065414428711 C 156.9595794677734 19.89973068237305 161.1479187011719 24.17200088500977 164.6186981201172 29.02873039245605 C 168.1328125 33.94607543945313 170.8288116455078 39.34976959228516 172.6318054199219 45.08969116210938 L 174.2245330810547 50.16011428833008 L 179.1884155273438 48.26123046875 C 185.7229156494141 45.76157760620117 192.6181182861328 44.49411392211914 199.6825714111328 44.49411392211914 C 207.4232635498047 44.49411392211914 214.9296875 46.00742340087891 221.9933471679688 48.99203872680664 C 225.3886871337891 50.42665481567383 228.6638488769531 52.20257568359375 231.7278442382813 54.27046203613281 C 234.7639617919922 56.31946182250977 237.6191101074219 58.67276763916016 240.2140045166016 61.26499938964844 C 242.8088073730469 63.85715484619141 245.1644287109375 66.70919036865234 247.2154235839844 69.74195861816406 C 249.28515625 72.80238342285156 251.0626525878906 76.07369232177734 252.4985046386719 79.46495819091797 C 255.4854583740234 86.51969146728516 257 94.01646423339844 257 101.7471160888672 C 257 109.4777297973633 255.4854583740234 116.9745025634766 252.4985046386719 124.0291900634766 C 251.0626525878906 127.4205017089844 249.28515625 130.6917724609375 247.2154235839844 133.752197265625 C 245.1644287109375 136.7849578857422 242.8088073730469 139.6369934082031 240.2140045166016 142.2291107177734 C 237.6191101074219 144.8213500976563 234.7639617919922 147.1746520996094 231.7278442382813 149.2236938476563 C 228.6638488769531 151.2915344238281 225.3886871337891 153.0674591064453 221.9933471679688 154.5020751953125 C 214.9296875 157.4866943359375 207.4232635498047 159 199.6825714111328 159 Z" stroke="none"/>
        <path d="M 199.6825408935547 154 C 228.5305023193359 154 252 130.5594635009766 252 101.7470855712891 C 252 72.93470764160156 228.5305023193359 49.49412536621094 199.6825408935547 49.49412536621094 C 193.23095703125 49.49412536621094 186.9368286132813 50.6505012512207 180.9748687744141 52.93120956420898 L 171.0470428466797 56.72895812988281 L 167.8616180419922 46.58808517456055 C 160.9872894287109 24.7036247253418 140.9227905273438 10 117.9336242675781 10 C 96.24320983886719 10 77.11521148681641 23.02912521362305 69.20278930664063 43.19320678710938 L 66.81291961669922 49.28358459472656 L 60.27524948120117 49.53308486938477 C 32.08349990844727 50.60912322998047 10 73.54425048828125 10 101.7470855712891 C 10 130.5594635009766 33.4692497253418 154 62.31687545776367 154 C 71.51753997802734 154 80.56204223632813 151.5839996337891 88.47254180908203 147.0131683349609 L 93.4755859375 144.1223297119141 L 98.47862243652344 147.0131683349609 C 106.3891220092773 151.5839996337891 115.4336242675781 154 124.6343307495117 154 C 136.1130828857422 154 147.0059204101563 150.3589630126953 156.13525390625 143.4705047607422 L 162.1584167480469 138.9257965087891 L 168.1815795898438 143.4705047607422 C 177.3109130859375 150.3589630126953 188.2037506103516 154 199.6825408935547 154 M 199.6825408935547 164 C 185.5937042236328 164 172.5963745117188 159.3289642333984 162.1584167480469 151.4530792236328 C 151.720458984375 159.3289642333984 138.7231597900391 164 124.6343307495117 164 C 113.2845001220703 164 102.6411285400391 160.9676666259766 93.4755859375 155.6716613769531 C 84.31004333496094 160.9676666259766 73.66670989990234 164 62.31687545776367 164 C 27.90037536621094 164 2.842170943040401e-14 136.1282958984375 2.842170943040401e-14 101.7470855712891 C 2.842170943040401e-14 68.17591857910156 26.59958267211914 40.81116485595703 59.89383316040039 39.54037475585938 C 68.97783660888672 16.390625 91.53891754150391 1.4210854715202e-14 117.9336242675781 1.4210854715202e-14 C 145.8424224853516 1.4210854715202e-14 169.4659118652344 18.32662582397461 177.4019927978516 43.59125137329102 C 184.3202514648438 40.94475173950195 191.8325347900391 39.49412536621094 199.6825408935547 39.49412536621094 C 234.0996704101563 39.49412536621094 262 67.36587524414063 262 101.7470855712891 C 262 136.1282958984375 234.0996704101563 164 199.6825408935547 164 Z" stroke="none" fill="#231f20"/>
      </g>
    </g>
    <g transform="matrix(1, 0, 0, 1, 113.5, 694)" filter="url(#Union_5)">
      <g id="Union_5-2" data-name="Union 5" transform="translate(297.5 1213)" fill="#fff">
        <path d="M 297.99951171875 240 C 288.2615661621094 240 278.6968383789063 238.4213714599609 269.5708923339844 235.3080596923828 C 260.7477416992188 232.2979431152344 252.4854278564453 227.9101104736328 245.0133666992188 222.2663116455078 L 241.9997863769531 219.9901123046875 L 238.9862060546875 222.2663116455078 C 231.51416015625 227.9101104736328 223.2518463134766 232.2979431152344 214.4286804199219 235.3080596923828 C 205.3027954101563 238.4213714599609 195.7380065917969 240 186.0000457763672 240 C 178.1411590576172 240 170.3489990234375 238.9642181396484 162.8401031494141 236.9213714599609 C 155.5604248046875 234.9409484863281 148.5498962402344 232.0167846679688 142.0032653808594 228.2301635742188 L 139.4998474121094 226.7821502685547 L 136.9964141845703 228.2301635742188 C 130.4497833251953 232.0167846679688 123.439208984375 234.9409484863281 116.1595230102539 236.9213714599609 C 108.650634765625 238.9642181396484 100.8584747314453 240 92.99958038330078 240 C 87.02568054199219 240 81.05699920654297 239.3984680175781 75.25936889648438 238.2120513916016 C 69.61163330078125 237.0563659667969 64.05631256103516 235.3318939208984 58.7477912902832 233.0865783691406 C 53.53452682495117 230.8815307617188 48.50594711303711 228.1520538330078 43.80173873901367 224.9739532470703 C 39.14094924926758 221.8251647949219 34.7579460144043 218.2087860107422 30.77457809448242 214.2253723144531 C 26.79115867614746 210.241943359375 23.17484283447266 205.8589935302734 20.02605247497559 201.1981506347656 C 16.84794807434082 196.4939422607422 14.11847400665283 191.4653625488281 11.91342067718506 186.2521057128906 C 9.668105125427246 180.9435729980469 7.943631649017334 175.3882598876953 6.787947177886963 169.7405242919922 C 5.601526260375977 163.9428405761719 5 157.9741516113281 5 152.0002593994141 C 5 140.3973083496094 7.221158027648926 129.1241607666016 11.6017894744873 118.493896484375 C 13.70878982543945 113.3808975219727 16.31947326660156 108.4371032714844 19.36120986938477 103.7997894287109 C 22.37368392944336 99.20720672607422 25.83789443969727 94.87084197998047 29.65763092041016 90.91110229492188 C 33.47410583496094 86.95473480224609 37.68015670776367 83.33842468261719 42.1589469909668 80.16262817382813 C 46.67373657226563 76.96126556396484 51.50889587402344 74.17710876464844 56.53005218505859 71.88752746582031 C 66.94773864746094 67.13716125488281 78.06547546386719 64.50557708740234 89.57447052001953 64.06584167480469 L 92.84442138671875 63.94089508056641 L 94.03868103027344 60.89426422119141 C 97.21578979492188 52.78936767578125 101.5815277099609 45.20679092407227 107.0146331787109 38.35715866088867 C 112.4023666381836 31.56468391418457 118.7417373657227 25.61468505859375 125.8566284179688 20.6723690032959 C 140.6167907714844 10.41942119598389 157.9561004638672 5 176.0001525878906 5 C 185.64599609375 5 195.1247406005859 6.549263000488281 204.1731109619141 9.604789733886719 C 212.9222564697266 12.55921077728271 221.1280059814453 16.86910438537598 228.5623626708984 22.41473770141602 C 235.9149932861328 27.89936828613281 242.3447418212891 34.46463012695313 247.6729431152344 41.92826461791992 C 253.0690460205078 49.48694610595703 257.2091674804688 57.79378890991211 259.9781494140625 66.61810302734375 L 261.5704345703125 71.6922607421875 L 266.5368347167969 69.79047393798828 C 276.5699462890625 65.94841766357422 287.155517578125 64.0003662109375 297.99951171875 64.0003662109375 C 303.9735412597656 64.0003662109375 309.9423217773438 64.60189819335938 315.7400512695313 65.78831481933594 C 321.3879089355469 66.94400024414063 326.9432678222656 68.66847229003906 332.2518310546875 70.91384124755859 C 337.4651489257813 73.11884307861328 342.4937744140625 75.84836578369141 347.1980590820313 79.02647399902344 C 351.85888671875 82.17526245117188 356.2418823242188 85.79158020019531 360.2253112792969 89.77500152587891 C 364.2088012695313 93.75847625732422 367.8251037597656 98.14147186279297 370.9739379882813 102.8022613525391 C 374.1520385742188 107.506477355957 376.8815307617188 112.5351028442383 379.0865783691406 117.7483673095703 C 381.3319091796875 123.0568923950195 383.0563659667969 128.6122131347656 384.2120666503906 134.2599945068359 C 385.3984680175781 140.0576324462891 386 146.0263214111328 386 152.0002593994141 C 386 157.9741516113281 385.3984680175781 163.9428405761719 384.2120666503906 169.7405242919922 C 383.0563659667969 175.3882598876953 381.3319091796875 180.9435729980469 379.0865783691406 186.2521057128906 C 376.8815307617188 191.4653625488281 374.1520385742188 196.4939422607422 370.9739379882813 201.1981506347656 C 367.8251037597656 205.8589477539063 364.2088012695313 210.241943359375 360.2253723144531 214.2253723144531 C 356.2418823242188 218.2087860107422 351.85888671875 221.8251647949219 347.1980590820313 224.9739532470703 C 342.4937744140625 228.1520538330078 337.4651489257813 230.8815307617188 332.2518310546875 233.0865783691406 C 326.9432678222656 235.3318939208984 321.3879089355469 237.0563659667969 315.7400512695313 238.2120513916016 C 309.9423217773438 239.3984680175781 303.9735412597656 240 297.99951171875 240 Z" stroke="none"/>
        <path d="M 297.9995422363281 235 C 343.76611328125 235 381 197.7664642333984 381 152.0002288818359 C 381 106.2339401245117 343.76611328125 69.00035095214844 297.9995422363281 69.00035095214844 C 287.7690734863281 69.00035095214844 277.7850646972656 70.83717346191406 268.3248901367188 74.45982360839844 L 258.3919982910156 78.26347351074219 L 255.2074737548828 68.11511993408203 C 244.2998199462891 33.35464859008789 212.4688873291016 10 176.0001831054688 10 C 141.5922393798828 10 111.2477035522461 30.6934700012207 98.69382476806641 62.71905899047852 L 96.3052978515625 68.81229400634766 L 89.76535034179688 69.06217956542969 C 45.03711700439453 70.7711181640625 10 107.2018814086914 10 152.0002288818359 C 10 197.7664642333984 47.23347091674805 235 92.99958801269531 235 C 107.592529296875 235 121.9407043457031 231.162353515625 134.4929351806641 223.9019927978516 L 139.4998168945313 221.0059967041016 L 144.5066986083984 223.9019927978516 C 157.0589447021484 231.162353515625 171.4071197509766 235 186.0000610351563 235 C 204.2077026367188 235 221.4880065917969 229.2171173095703 235.9727020263672 218.2765350341797 L 241.9998168945313 213.72412109375 L 248.0269470214844 218.2765350341797 C 262.5116577148438 229.2171173095703 279.7918701171875 235 297.9995422363281 235 M 297.9995422363281 245 C 276.9738159179688 245 257.5770568847656 238.0219421386719 241.9998168945313 226.2561187744141 C 226.4225311279297 238.0219421386719 207.0257720947266 245 186.0000610351563 245 C 169.0619354248047 245 153.1781768798828 240.4700012207031 139.4998168945313 232.5582885742188 C 125.8214721679688 240.4700012207031 109.9377059936523 245 92.99958801269531 245 C 41.63753128051758 245 0 203.3623504638672 0 152.0002288818359 C 0 101.8481140136719 39.69629287719727 60.9678840637207 89.38359069824219 59.0694694519043 C 102.9401779174805 24.48594093322754 136.6096496582031 0 176.0001831054688 0 C 217.6503601074219 0 252.9052429199219 27.37817573547363 264.748779296875 65.12111663818359 C 275.0733642578125 61.1674690246582 286.284423828125 59.0003547668457 297.9995422363281 59.0003547668457 C 349.3624572753906 59.0003547668457 391 100.6380615234375 391 152.0002288818359 C 391 203.3623504638672 349.3624572753906 245 297.9995422363281 245 Z" stroke="none" fill="#231f20"/>
      </g>
    </g>
  </g>
</svg>
