<svg xmlns="http://www.w3.org/2000/svg" viewBox="0 0 476.9 148.46"><defs><style>.cls-1{fill:#ffdb06;}.cls-2{fill:#231f20;}.cls-3{fill:#fff;}</style></defs><title>EDLogo</title><g id="Layer_2" data-name="Layer 2"><g id="Layer_1-2" data-name="Layer 1"><rect class="cls-1" x="13.26" y="3.08" width="137" height="137" rx="68.5" transform="translate(163.53 143.16) rotate(180)"/><path class="cls-2" d="M81.77,143.16a71.58,71.58,0,1,1,71.58-71.58A71.66,71.66,0,0,1,81.77,143.16Zm0-137a65.42,65.42,0,1,0,65.42,65.42A65.5,65.5,0,0,0,81.77,6.16Z"/><path class="cls-3" d="M59.17,103.83,7.54,69.91a10,10,0,0,1-4.46-8.5l.7-37.93a8.77,8.77,0,0,1,13.63-7.15L69.68,48.18c.53.35-.39,1.82-.7,2.36C57.73,70,58.84,85.52,60.43,95.35,61.16,100.07,60.83,104.93,59.17,103.83Z"/><path class="cls-2" d="M59.62,107.07a3.86,3.86,0,0,1-2.15-.67L5.85,72.48A13,13,0,0,1,0,61.35L.7,23.42A11.7,11.7,0,0,1,7.05,13.14a11.7,11.7,0,0,1,12,.59L71.38,45.61c1.34.89,2.48,2.71.33,6.36l-.07.12c-10.45,18-9.85,32.33-8.16,42.76.66,4.35.87,9.88-1.91,11.65A3.63,3.63,0,0,1,59.62,107.07Zm-47-89.14a5.75,5.75,0,0,0-2.66.66,5.64,5.64,0,0,0-3,4.94l-.7,37.93a6.89,6.89,0,0,0,3.08,5.88L57.71,99.18a29.67,29.67,0,0,0-.32-3.37C55.7,85.38,54.77,69.24,66,49.54L15.71,18.89A5.67,5.67,0,0,0,12.57,17.93Z"/><line class="cls-3" x1="5.18" y1="21.17" x2="34.43" y2="40.59"/><path class="cls-2" d="M34.43,43.68a3.09,3.09,0,0,1-1.71-.52L3.47,23.74A3.08,3.08,0,0,1,6.88,18.6L36.13,38a3.08,3.08,0,0,1-1.7,5.65Z"/><line class="cls-3" x1="3.7" y1="37.29" x2="32.11" y2="56.15"/><path class="cls-2" d="M32.11,59.24a3,3,0,0,1-1.7-.52L2,39.86a3.08,3.08,0,0,1,3.41-5.14l28.4,18.87a3.08,3.08,0,0,1-1.7,5.65Z"/><line class="cls-3" x1="3.21" y1="54.52" x2="27.79" y2="70.84"/><path class="cls-2" d="M27.79,73.92a3.08,3.08,0,0,1-1.71-.51L1.51,57.09A3.08,3.08,0,1,1,4.91,52L29.49,68.28a3.08,3.08,0,0,1-1.7,5.64Z"/><path class="cls-3" d="M107.35,103.75l51.24-34.51A10,10,0,0,0,163,60.69l-1.13-37.92a8.77,8.77,0,0,0-13.71-7L96.21,48.22c-.53.36.41,1.81.73,2.35,11.47,19.29,10.53,34.86,9,44.71C105.32,100,105.71,104.87,107.35,103.75Z"/><path class="cls-2" d="M106.89,107a3.58,3.58,0,0,1-1.91-.55c-2.79-1.74-2.65-7.26-2-11.59,1.57-10.48,2-24.78-8.65-42.7L94.22,52c-2.18-3.62-1.06-5.46.26-6.36l.1-.07,51.85-32.41a11.86,11.86,0,0,1,18.47,9.49L166,60.6a13,13,0,0,1-5.7,11.19L109.08,106.3A3.91,3.91,0,0,1,106.89,107Zm-1.27-5.79ZM99.91,49.54c11.45,19.57,10.7,35.72,9.13,46.2a28.07,28.07,0,0,0-.28,3.35l48.11-32.41a6.85,6.85,0,0,0,3-5.9l-1.14-37.92a5.69,5.69,0,0,0-8.89-4.54l-.1.07Z"/><line class="cls-3" x1="160.4" y1="20.48" x2="131.38" y2="40.24"/><path class="cls-2" d="M131.38,43.32a3.08,3.08,0,0,1-1.74-5.63l29-19.76a3.08,3.08,0,0,1,3.47,5.1l-29,19.75A3.09,3.09,0,0,1,131.38,43.32Z"/><line class="cls-3" x1="162.06" y1="36.58" x2="133.87" y2="55.77"/><path class="cls-2" d="M133.87,58.85a3.08,3.08,0,0,1-1.73-5.63L160.33,34a3.08,3.08,0,1,1,3.46,5.09L135.6,58.32A3.06,3.06,0,0,1,133.87,58.85Z"/><line class="cls-3" x1="162.75" y1="53.81" x2="138.36" y2="70.41"/><path class="cls-2" d="M138.36,73.49a3.08,3.08,0,0,1-1.74-5.63L161,51.26a3.08,3.08,0,1,1,3.46,5.1L140.09,73A3.07,3.07,0,0,1,138.36,73.49Z"/><path class="cls-3" d="M60,65.8H107.1a5.51,5.51,0,0,1,5.51,5.51V95A29.63,29.63,0,0,1,83,124.62h0A29.18,29.18,0,0,1,53.8,95.44V72A6.18,6.18,0,0,1,60,65.8Z" transform="translate(166.42 190.42) rotate(180)"/><path class="cls-2" d="M106.43,127.7H59.31a8.6,8.6,0,0,1-8.59-8.59V95.44A32.76,32.76,0,0,1,83.43,62.72,32.3,32.3,0,0,1,115.69,95v23.45A9.27,9.27,0,0,1,106.43,127.7Zm-23-58.81A26.58,26.58,0,0,0,56.88,95.44v23.67a2.43,2.43,0,0,0,2.43,2.43h47.12a3.1,3.1,0,0,0,3.1-3.1V95A26.13,26.13,0,0,0,83.43,68.89Z"/><path class="cls-2" d="M81.9,112.72l-5.35-9.26a1.51,1.51,0,0,1,1.31-2.26h10.7a1.5,1.5,0,0,1,1.3,2.26l-5.35,9.26A1.5,1.5,0,0,1,81.9,112.72Z"/><path class="cls-2" d="M83.21,115.6a2.49,2.49,0,0,1-2.14-1.24h0l-6.35-11a2.47,2.47,0,0,1,2.14-3.7h12.7a2.47,2.47,0,0,1,2.14,3.7l-6.35,11A2.49,2.49,0,0,1,83.21,115.6Zm-5.3-12.86,5.3,9.16,5.29-9.16Z"/><path class="cls-2" d="M208.84,54.64V14.2h-7V7.45h44.81V23.7H240V14.2H217V30.25h20V37H217V54.64h23V44.83h6.66V61.38H201.86V54.64Z"/><path class="cls-2" d="M290.44,54.83v6.55H277.57V56.81A16.75,16.75,0,0,1,265.63,62a13,13,0,0,1-8.9-3.33A11.45,11.45,0,0,1,257,41.46,14.33,14.33,0,0,1,266.64,38a18.67,18.67,0,0,1,10.2,3.18V37.46a14.05,14.05,0,0,0-.55-4.42,5.68,5.68,0,0,0-2.54-2.79A9.73,9.73,0,0,0,268.54,29q-5.55,0-8,4.42l-7-1.86q4.69-8.76,16.2-8.76A21.06,21.06,0,0,1,277,24a10.72,10.72,0,0,1,4.6,2.95,9.78,9.78,0,0,1,2,3.89,30.33,30.33,0,0,1,.52,6.67V54.83Zm-13.6-7.4a15.59,15.59,0,0,0-9.66-3.73,7.54,7.54,0,0,0-5.12,1.79A5.81,5.81,0,0,0,260,50.1a6,6,0,0,0,1.8,4.42,6.67,6.67,0,0,0,4.91,1.78q5.34,0,10.12-4.49Z"/><path class="cls-2" d="M340.18,23.85v6.56h-6.74v28a44.66,44.66,0,0,1-.58,8.39,14,14,0,0,1-2.81,5.58,16.78,16.78,0,0,1-6.69,4.79,24.8,24.8,0,0,1-10,1.94,23.67,23.67,0,0,1-14.8-5l4.8-5.35A17,17,0,0,0,314,72.51a14.29,14.29,0,0,0,5.9-1.22,10.27,10.27,0,0,0,4-3A9.09,9.09,0,0,0,325.68,65a24.79,24.79,0,0,0,.39-5.29V56.3a18.18,18.18,0,0,1-26.75.59,19.7,19.7,0,0,1-5.08-13.73q0-8.91,5.6-14.4a18,18,0,0,1,13-5.49q7.45,0,13.26,5.93V23.85ZM302.07,43a13.19,13.19,0,0,0,3.32,9.3,11,11,0,0,0,8.47,3.61,11.87,11.87,0,0,0,8.68-3.63A12.58,12.58,0,0,0,326.19,43a12.31,12.31,0,0,0-3.65-9.29,11.93,11.93,0,0,0-16.86,0A12.43,12.43,0,0,0,302.07,43Z"/><path class="cls-2" d="M349.33,54.83V14h-6.67V7.45h14V54.83h5.74v6.55H342.66V54.83Z"/><path class="cls-2" d="M406.83,44.48H375.27a13.59,13.59,0,0,0,4.11,8.41,12.17,12.17,0,0,0,8.72,3.22,14.3,14.3,0,0,0,12.21-6.2l6.52,2.87a19.67,19.67,0,0,1-8.26,7.3A24.73,24.73,0,0,1,388,62.47a21.53,21.53,0,0,1-14.72-5.37q-6.11-5.37-6.1-14.48a18.64,18.64,0,0,1,5.95-14.23,19.4,19.4,0,0,1,13.66-5.58,20.18,20.18,0,0,1,13.71,5.44Q406.6,33.71,406.83,44.48Zm-7.6-5.35A13.43,13.43,0,0,0,395.12,32a11.33,11.33,0,0,0-8.18-3.2,10.74,10.74,0,0,0-7.56,2.89,12.35,12.35,0,0,0-3.84,7.46Z"/><path class="cls-2" d="M210.79,124V83.6h-7.32V76.85h20.85a76,76,0,0,1,13.32.89,23,23,0,0,1,9.05,4,22,22,0,0,1,7,8.63,28.64,28.64,0,0,1,2.62,12.5,35.1,35.1,0,0,1-2.52,13.88,20.22,20.22,0,0,1-6.61,8.8,25.18,25.18,0,0,1-9.73,4,73.72,73.72,0,0,1-14.37,1.15H203.47V124Zm8.14,0h4.27a56.12,56.12,0,0,0,11.3-.89,17.8,17.8,0,0,0,7-3,15,15,0,0,0,4.65-6.5A26.77,26.77,0,0,0,248,103.37,22.65,22.65,0,0,0,245,91.47a13.66,13.66,0,0,0-7.48-6.38c-3-1-7.71-1.49-14-1.49h-4.62Z"/><path class="cls-2" d="M302.91,113.87H271.35a13.67,13.67,0,0,0,4.11,8.42,12.21,12.21,0,0,0,8.72,3.22,14.27,14.27,0,0,0,12.21-6.21l6.52,2.87a19.64,19.64,0,0,1-8.26,7.31A24.72,24.72,0,0,1,284,131.86a21.53,21.53,0,0,1-14.72-5.37q-6.1-5.37-6.1-14.48a18.63,18.63,0,0,1,6-14.22,19.37,19.37,0,0,1,13.67-5.59,20.16,20.16,0,0,1,13.7,5.45Q302.68,103.1,302.91,113.87Zm-7.6-5.35a13.46,13.46,0,0,0-4.11-7.15,11.38,11.38,0,0,0-8.18-3.2,10.79,10.79,0,0,0-7.56,2.89,12.4,12.4,0,0,0-3.84,7.46Z"/><path class="cls-2" d="M309.11,130.78V117.91h6.59v1.24a6.1,6.1,0,0,0,2.85,4.34,10.23,10.23,0,0,0,5.91,1.71,11.26,11.26,0,0,0,5.7-1.25,3.81,3.81,0,0,0,2.13-3.45,3.36,3.36,0,0,0-1.76-3.14q-1.77-1-7-1.85-7.75-1.31-11.07-4.24a9.64,9.64,0,0,1-3.31-7.58,10,10,0,0,1,3.6-7.86,13.89,13.89,0,0,1,9.5-3.16,18.27,18.27,0,0,1,9.15,2.18v-1.6H338v12.44H331.4v-2.28a9.7,9.7,0,0,0-8.68-4.62,8.43,8.43,0,0,0-4.79,1.26,3.88,3.88,0,0,0-1.88,3.36,2.91,2.91,0,0,0,1.73,2.92A34,34,0,0,0,325.2,108a38.61,38.61,0,0,1,8.26,2,10.35,10.35,0,0,1,4.63,3.8,10.57,10.57,0,0,1,1.84,6.19,9.93,9.93,0,0,1-4,8.31q-4,3.09-10.41,3.09a16.4,16.4,0,0,1-9.81-2.73v2.11Z"/><path class="cls-2" d="M350.63,124.23V99.8h-5.81V93.25H358v31h5.81v6.55h-19v-6.55Zm-1.05-43.74a4.36,4.36,0,0,1,1.26-3.1,4.27,4.27,0,0,1,3.2-1.31,4.35,4.35,0,0,1,3.14,1.27,4.42,4.42,0,0,1,0,6.3,4.46,4.46,0,0,1-7.6-3.16Z"/><path class="cls-2" d="M414.13,93.25V99.8h-6.74v28a44.71,44.71,0,0,1-.58,8.4,14,14,0,0,1-2.81,5.58,16.78,16.78,0,0,1-6.69,4.79,24.75,24.75,0,0,1-10,1.94,23.68,23.68,0,0,1-14.81-5l4.8-5.35A17,17,0,0,0,388,141.9a14.12,14.12,0,0,0,5.89-1.22,10.25,10.25,0,0,0,4.05-3,9.32,9.32,0,0,0,1.73-3.32,25.6,25.6,0,0,0,.38-5.29V125.7a18.19,18.19,0,0,1-26.75.58,19.67,19.67,0,0,1-5.08-13.72q0-8.93,5.61-14.41a18,18,0,0,1,13-5.48q7.46,0,13.26,5.93V93.25ZM376,112.4a13.23,13.23,0,0,0,3.31,9.31,11,11,0,0,0,8.47,3.6,11.88,11.88,0,0,0,8.68-3.62,12.61,12.61,0,0,0,3.65-9.33,12.29,12.29,0,0,0-3.65-9.28,11.93,11.93,0,0,0-16.86,0A12.38,12.38,0,0,0,376,112.4Z"/><path class="cls-2" d="M431.12,93.25v4.54q7.1-5.13,12.94-5.12a10,10,0,0,1,6,1.72,7.93,7.93,0,0,1,3.12,4.23,27.49,27.49,0,0,1,.74,7.31v18.3h6.32v6.55H446.58V106.24c0-2.85-.42-4.7-1.28-5.57a4.25,4.25,0,0,0-3.14-1.29c-3.25,0-6.94,1.58-11,4.76v20.09h6.47v6.55H417.16v-6.55h6.59V99.8h-6.59V93.25Z"/><path class="cls-2" d="M467.36,130.78v-9.54h9.54v9.54Z"/></g></g></svg>