<svg xmlns="http://www.w3.org/2000/svg" xmlns:xlink="http://www.w3.org/1999/xlink" width="2375" height="641" viewBox="0 0 2375 641">
  <defs>
    <filter id="Union_4" x="0" y="343" width="412" height="266" filterUnits="userSpaceOnUse">
      <feOffset dy="10" input="SourceAlpha"/>
      <feGaussianBlur stdDeviation="3.5" result="blur"/>
      <feFlood flood-opacity="0.161"/>
      <feComposite operator="in" in2="blur"/>
      <feComposite in="SourceGraphic"/>
    </filter>
    <filter id="Union_9" x="1595" y="0" width="412" height="266" filterUnits="userSpaceOnUse">
      <feOffset dy="10" input="SourceAlpha"/>
      <feGaussianBlur stdDeviation="3.5" result="blur-2"/>
      <feFlood flood-opacity="0.161"/>
      <feComposite operator="in" in2="blur-2"/>
      <feComposite in="SourceGraphic"/>
    </filter>
    <filter id="Union_10" x="1963" y="375" width="412" height="266" filterUnits="userSpaceOnUse">
      <feOffset dy="10" input="SourceAlpha"/>
      <feGaussianBlur stdDeviation="3.5" result="blur-3"/>
      <feFlood flood-opacity="0.161"/>
      <feComposite operator="in" in2="blur-3"/>
      <feComposite in="SourceGraphic"/>
    </filter>
  </defs>
  <g id="Group_120" data-name="Group 120" transform="translate(193.5 -209.5)">
    <g transform="matrix(1, 0, 0, 1, -193.5, 209.5)" filter="url(#Union_4)">
      <g id="Union_4-2" data-name="Union 4" transform="translate(10.5 343.5)" fill="#fff">
        <path d="M 297.99951171875 240 C 288.2615661621094 240 278.6968383789063 238.4213714599609 269.5708923339844 235.3080596923828 C 260.7477416992188 232.2979431152344 252.4854278564453 227.9101104736328 245.0133666992188 222.2663116455078 L 241.9997863769531 219.9901123046875 L 238.9862060546875 222.2663116455078 C 231.51416015625 227.9101104736328 223.2518463134766 232.2979431152344 214.4286804199219 235.3080596923828 C 205.3027954101563 238.4213714599609 195.7380065917969 240 186.0000457763672 240 C 178.1411590576172 240 170.3489990234375 238.9642181396484 162.8401031494141 236.9213714599609 C 155.5604248046875 234.9409484863281 148.5498962402344 232.0167846679688 142.0032653808594 228.2301635742188 L 139.4998474121094 226.7821502685547 L 136.9964141845703 228.2301635742188 C 130.4497833251953 232.0167846679688 123.439208984375 234.9409484863281 116.1595230102539 236.9213714599609 C 108.650634765625 238.9642181396484 100.8584747314453 240 92.99958038330078 240 C 87.02568054199219 240 81.05699920654297 239.3984680175781 75.25936889648438 238.2120513916016 C 69.61163330078125 237.0563659667969 64.05631256103516 235.3318939208984 58.7477912902832 233.0865783691406 C 53.53452682495117 230.8815307617188 48.50594711303711 228.1520538330078 43.80173873901367 224.9739532470703 C 39.14094924926758 221.8251647949219 34.7579460144043 218.2087860107422 30.77457809448242 214.2253723144531 C 26.79115867614746 210.241943359375 23.17484283447266 205.8589935302734 20.02605247497559 201.1981506347656 C 16.84794807434082 196.4939422607422 14.11847400665283 191.4653625488281 11.91342067718506 186.2521057128906 C 9.668105125427246 180.9435729980469 7.943631649017334 175.3882598876953 6.787947177886963 169.7405242919922 C 5.601526260375977 163.9428405761719 5 157.9741516113281 5 152.0002593994141 C 5 140.3973083496094 7.221158027648926 129.1241607666016 11.6017894744873 118.493896484375 C 13.70878982543945 113.3808975219727 16.31947326660156 108.4371032714844 19.36120986938477 103.7997894287109 C 22.37368392944336 99.20720672607422 25.83789443969727 94.87084197998047 29.65763092041016 90.91110229492188 C 33.47410583496094 86.95473480224609 37.68015670776367 83.33842468261719 42.1589469909668 80.16262817382813 C 46.67373657226563 76.96126556396484 51.50889587402344 74.17710876464844 56.53005218505859 71.88752746582031 C 66.94773864746094 67.13716125488281 78.06547546386719 64.50557708740234 89.57447052001953 64.06584167480469 L 92.84442138671875 63.94089508056641 L 94.03868103027344 60.89426422119141 C 97.21578979492188 52.78936767578125 101.5815277099609 45.20679092407227 107.0146331787109 38.35715866088867 C 112.4023666381836 31.56468391418457 118.7417373657227 25.61468505859375 125.8566284179688 20.6723690032959 C 140.6167907714844 10.41942119598389 157.9561004638672 5 176.0001525878906 5 C 185.64599609375 5 195.1247406005859 6.549263000488281 204.1731109619141 9.604789733886719 C 212.9222564697266 12.55921077728271 221.1280059814453 16.86910438537598 228.5623626708984 22.41473770141602 C 235.9149932861328 27.89936828613281 242.3447418212891 34.46463012695313 247.6729431152344 41.92826461791992 C 253.0690460205078 49.48694610595703 257.2091674804688 57.79378890991211 259.9781494140625 66.61810302734375 L 261.5704345703125 71.6922607421875 L 266.5368347167969 69.79047393798828 C 276.5699462890625 65.94841766357422 287.155517578125 64.0003662109375 297.99951171875 64.0003662109375 C 303.9735412597656 64.0003662109375 309.9423217773438 64.60189819335938 315.7400512695313 65.78831481933594 C 321.3879089355469 66.94400024414063 326.9432678222656 68.66847229003906 332.2518310546875 70.91384124755859 C 337.4651489257813 73.11884307861328 342.4937744140625 75.84836578369141 347.1980590820313 79.02647399902344 C 351.85888671875 82.17526245117188 356.2418823242188 85.79158020019531 360.2253112792969 89.77500152587891 C 364.2088012695313 93.75847625732422 367.8251037597656 98.14147186279297 370.9739379882813 102.8022613525391 C 374.1520385742188 107.506477355957 376.8815307617188 112.5351028442383 379.0865783691406 117.7483673095703 C 381.3319091796875 123.0568923950195 383.0563659667969 128.6122131347656 384.2120666503906 134.2599945068359 C 385.3984680175781 140.0576324462891 386 146.0263214111328 386 152.0002593994141 C 386 157.9741516113281 385.3984680175781 163.9428405761719 384.2120666503906 169.7405242919922 C 383.0563659667969 175.3882598876953 381.3319091796875 180.9435729980469 379.0865783691406 186.2521057128906 C 376.8815307617188 191.4653625488281 374.1520385742188 196.4939422607422 370.9739379882813 201.1981506347656 C 367.8251037597656 205.8589477539063 364.2088012695313 210.241943359375 360.2253723144531 214.2253723144531 C 356.2418823242188 218.2087860107422 351.85888671875 221.8251647949219 347.1980590820313 224.9739532470703 C 342.4937744140625 228.1520538330078 337.4651489257813 230.8815307617188 332.2518310546875 233.0865783691406 C 326.9432678222656 235.3318939208984 321.3879089355469 237.0563659667969 315.7400512695313 238.2120513916016 C 309.9423217773438 239.3984680175781 303.9735412597656 240 297.99951171875 240 Z" stroke="none"/>
        <path d="M 297.9995422363281 235 C 343.76611328125 235 381 197.7664642333984 381 152.0002288818359 C 381 106.2339401245117 343.76611328125 69.00035095214844 297.9995422363281 69.00035095214844 C 287.7690734863281 69.00035095214844 277.7850646972656 70.83717346191406 268.3248901367188 74.45982360839844 L 258.3919982910156 78.26347351074219 L 255.2074737548828 68.11511993408203 C 244.2998199462891 33.35464859008789 212.4688873291016 10 176.0001831054688 10 C 141.5922393798828 10 111.2477035522461 30.6934700012207 98.69382476806641 62.71905899047852 L 96.3052978515625 68.81229400634766 L 89.76535034179688 69.06217956542969 C 45.03711700439453 70.7711181640625 10 107.2018814086914 10 152.0002288818359 C 10 197.7664642333984 47.23347091674805 235 92.99958801269531 235 C 107.592529296875 235 121.9407043457031 231.162353515625 134.4929351806641 223.9019927978516 L 139.4998168945313 221.0059967041016 L 144.5066986083984 223.9019927978516 C 157.0589447021484 231.162353515625 171.4071197509766 235 186.0000610351563 235 C 204.2077026367188 235 221.4880065917969 229.2171173095703 235.9727020263672 218.2765350341797 L 241.9998168945313 213.72412109375 L 248.0269470214844 218.2765350341797 C 262.5116577148438 229.2171173095703 279.7918701171875 235 297.9995422363281 235 M 297.9995422363281 245 C 276.9738159179688 245 257.5770568847656 238.0219421386719 241.9998168945313 226.2561187744141 C 226.4225311279297 238.0219421386719 207.0257720947266 245 186.0000610351563 245 C 169.0619354248047 245 153.1781768798828 240.4700012207031 139.4998168945313 232.5582885742188 C 125.8214721679688 240.4700012207031 109.9377059936523 245 92.99958801269531 245 C 41.63753128051758 245 0 203.3623504638672 0 152.0002288818359 C 0 101.8481140136719 39.69629287719727 60.9678840637207 89.38359069824219 59.0694694519043 C 102.9401779174805 24.48594093322754 136.6096496582031 0 176.0001831054688 0 C 217.6503601074219 0 252.9052429199219 27.37817573547363 264.748779296875 65.12111663818359 C 275.0733642578125 61.1674690246582 286.284423828125 59.0003547668457 297.9995422363281 59.0003547668457 C 349.3624572753906 59.0003547668457 391 100.6380615234375 391 152.0002288818359 C 391 203.3623504638672 349.3624572753906 245 297.9995422363281 245 Z" stroke="none" fill="#231f20"/>
      </g>
    </g>
    <g transform="matrix(1, 0, 0, 1, -193.5, 209.5)" filter="url(#Union_9)">
      <g id="Union_9-2" data-name="Union 9" transform="translate(1605.5 0.5)" fill="#fff">
        <path d="M 297.99951171875 240 C 288.2615661621094 240 278.6968383789063 238.4213714599609 269.5708923339844 235.3080596923828 C 260.7477416992188 232.2979431152344 252.4854278564453 227.9101104736328 245.0133666992188 222.2663116455078 L 241.9997863769531 219.9901123046875 L 238.9862060546875 222.2663116455078 C 231.51416015625 227.9101104736328 223.2518463134766 232.2979431152344 214.4286804199219 235.3080596923828 C 205.3027954101563 238.4213714599609 195.7380065917969 240 186.0000457763672 240 C 178.1411590576172 240 170.3489990234375 238.9642181396484 162.8401031494141 236.9213714599609 C 155.5604248046875 234.9409484863281 148.5498962402344 232.0167846679688 142.0032653808594 228.2301635742188 L 139.4998474121094 226.7821502685547 L 136.9964141845703 228.2301635742188 C 130.4497833251953 232.0167846679688 123.439208984375 234.9409484863281 116.1595230102539 236.9213714599609 C 108.650634765625 238.9642181396484 100.8584747314453 240 92.99958038330078 240 C 87.02568054199219 240 81.05699920654297 239.3984680175781 75.25936889648438 238.2120513916016 C 69.61163330078125 237.0563659667969 64.05631256103516 235.3318939208984 58.7477912902832 233.0865783691406 C 53.53452682495117 230.8815307617188 48.50594711303711 228.1520538330078 43.80173873901367 224.9739532470703 C 39.14094924926758 221.8251647949219 34.7579460144043 218.2087860107422 30.77457809448242 214.2253723144531 C 26.79115867614746 210.241943359375 23.17484283447266 205.8589935302734 20.02605247497559 201.1981506347656 C 16.84794807434082 196.4939422607422 14.11847400665283 191.4653625488281 11.91342067718506 186.2521057128906 C 9.668105125427246 180.9435729980469 7.943631649017334 175.3882598876953 6.787947177886963 169.7405242919922 C 5.601526260375977 163.9428405761719 5 157.9741516113281 5 152.0002593994141 C 5 140.3973083496094 7.221158027648926 129.1241607666016 11.6017894744873 118.493896484375 C 13.70878982543945 113.3808975219727 16.31947326660156 108.4371032714844 19.36120986938477 103.7997894287109 C 22.37368392944336 99.20720672607422 25.83789443969727 94.87084197998047 29.65763092041016 90.91110229492188 C 33.47410583496094 86.95473480224609 37.68015670776367 83.33842468261719 42.1589469909668 80.16262817382813 C 46.67373657226563 76.96126556396484 51.50889587402344 74.17710876464844 56.53005218505859 71.88752746582031 C 66.94773864746094 67.13716125488281 78.06547546386719 64.50557708740234 89.57447052001953 64.06584167480469 L 92.84442138671875 63.94089508056641 L 94.03868103027344 60.89426422119141 C 97.21578979492188 52.78936767578125 101.5815277099609 45.20679092407227 107.0146331787109 38.35715866088867 C 112.4023666381836 31.56468391418457 118.7417373657227 25.61468505859375 125.8566284179688 20.6723690032959 C 140.6167907714844 10.41942119598389 157.9561004638672 5 176.0001525878906 5 C 185.64599609375 5 195.1247406005859 6.549263000488281 204.1731109619141 9.604789733886719 C 212.9222564697266 12.55921077728271 221.1280059814453 16.86910438537598 228.5623626708984 22.41473770141602 C 235.9149932861328 27.89936828613281 242.3447418212891 34.46463012695313 247.6729431152344 41.92826461791992 C 253.0690460205078 49.48694610595703 257.2091674804688 57.79378890991211 259.9781494140625 66.61810302734375 L 261.5704345703125 71.6922607421875 L 266.5368347167969 69.79047393798828 C 276.5699462890625 65.94841766357422 287.155517578125 64.0003662109375 297.99951171875 64.0003662109375 C 303.9735412597656 64.0003662109375 309.9423217773438 64.60189819335938 315.7400512695313 65.78831481933594 C 321.3879089355469 66.94400024414063 326.9432678222656 68.66847229003906 332.2518310546875 70.91384124755859 C 337.4651489257813 73.11884307861328 342.4937744140625 75.84836578369141 347.1980590820313 79.02647399902344 C 351.85888671875 82.17526245117188 356.2418823242188 85.79158020019531 360.2253112792969 89.77500152587891 C 364.2088012695313 93.75847625732422 367.8251037597656 98.14147186279297 370.9739379882813 102.8022613525391 C 374.1520385742188 107.506477355957 376.8815307617188 112.5351028442383 379.0865783691406 117.7483673095703 C 381.3319091796875 123.0568923950195 383.0563659667969 128.6122131347656 384.2120666503906 134.2599945068359 C 385.3984680175781 140.0576324462891 386 146.0263214111328 386 152.0002593994141 C 386 157.9741516113281 385.3984680175781 163.9428405761719 384.2120666503906 169.7405242919922 C 383.0563659667969 175.3882598876953 381.3319091796875 180.9435729980469 379.0865783691406 186.2521057128906 C 376.8815307617188 191.4653625488281 374.1520385742188 196.4939422607422 370.9739379882813 201.1981506347656 C 367.8251037597656 205.8589477539063 364.2088012695313 210.241943359375 360.2253723144531 214.2253723144531 C 356.2418823242188 218.2087860107422 351.85888671875 221.8251647949219 347.1980590820313 224.9739532470703 C 342.4937744140625 228.1520538330078 337.4651489257813 230.8815307617188 332.2518310546875 233.0865783691406 C 326.9432678222656 235.3318939208984 321.3879089355469 237.0563659667969 315.7400512695313 238.2120513916016 C 309.9423217773438 239.3984680175781 303.9735412597656 240 297.99951171875 240 Z" stroke="none"/>
        <path d="M 297.9995422363281 235 C 343.76611328125 235 381 197.7664642333984 381 152.0002288818359 C 381 106.2339401245117 343.76611328125 69.00035095214844 297.9995422363281 69.00035095214844 C 287.7690734863281 69.00035095214844 277.7850646972656 70.83717346191406 268.3248901367188 74.45982360839844 L 258.3919982910156 78.26347351074219 L 255.2074737548828 68.11511993408203 C 244.2998199462891 33.35464859008789 212.4688873291016 10 176.0001831054688 10 C 141.5922393798828 10 111.2477035522461 30.6934700012207 98.69382476806641 62.71905899047852 L 96.3052978515625 68.81229400634766 L 89.76535034179688 69.06217956542969 C 45.03711700439453 70.7711181640625 10 107.2018814086914 10 152.0002288818359 C 10 197.7664642333984 47.23347091674805 235 92.99958801269531 235 C 107.592529296875 235 121.9407043457031 231.162353515625 134.4929351806641 223.9019927978516 L 139.4998168945313 221.0059967041016 L 144.5066986083984 223.9019927978516 C 157.0589447021484 231.162353515625 171.4071197509766 235 186.0000610351563 235 C 204.2077026367188 235 221.4880065917969 229.2171173095703 235.9727020263672 218.2765350341797 L 241.9998168945313 213.72412109375 L 248.0269470214844 218.2765350341797 C 262.5116577148438 229.2171173095703 279.7918701171875 235 297.9995422363281 235 M 297.9995422363281 245 C 276.9738159179688 245 257.5770568847656 238.0219421386719 241.9998168945313 226.2561187744141 C 226.4225311279297 238.0219421386719 207.0257720947266 245 186.0000610351563 245 C 169.0619354248047 245 153.1781768798828 240.4700012207031 139.4998168945313 232.5582885742188 C 125.8214721679688 240.4700012207031 109.9377059936523 245 92.99958801269531 245 C 41.63753128051758 245 0 203.3623504638672 0 152.0002288818359 C 0 101.8481140136719 39.69629287719727 60.9678840637207 89.38359069824219 59.0694694519043 C 102.9401779174805 24.48594093322754 136.6096496582031 0 176.0001831054688 0 C 217.6503601074219 0 252.9052429199219 27.37817573547363 264.748779296875 65.12111663818359 C 275.0733642578125 61.1674690246582 286.284423828125 59.0003547668457 297.9995422363281 59.0003547668457 C 349.3624572753906 59.0003547668457 391 100.6380615234375 391 152.0002288818359 C 391 203.3623504638672 349.3624572753906 245 297.9995422363281 245 Z" stroke="none" fill="#231f20"/>
      </g>
    </g>
    <g transform="matrix(1, 0, 0, 1, -193.5, 209.5)" filter="url(#Union_10)">
      <g id="Union_10-2" data-name="Union 10" transform="translate(1973.5 375.5)" fill="#fff">
        <path d="M 297.99951171875 240 C 288.2615661621094 240 278.6968383789063 238.4213714599609 269.5708923339844 235.3080596923828 C 260.7477416992188 232.2979431152344 252.4854278564453 227.9101104736328 245.0133666992188 222.2663116455078 L 241.9997863769531 219.9901123046875 L 238.9862060546875 222.2663116455078 C 231.51416015625 227.9101104736328 223.2518463134766 232.2979431152344 214.4286804199219 235.3080596923828 C 205.3027954101563 238.4213714599609 195.7380065917969 240 186.0000457763672 240 C 178.1411590576172 240 170.3489990234375 238.9642181396484 162.8401031494141 236.9213714599609 C 155.5604248046875 234.9409484863281 148.5498962402344 232.0167846679688 142.0032653808594 228.2301635742188 L 139.4998474121094 226.7821502685547 L 136.9964141845703 228.2301635742188 C 130.4497833251953 232.0167846679688 123.439208984375 234.9409484863281 116.1595230102539 236.9213714599609 C 108.650634765625 238.9642181396484 100.8584747314453 240 92.99958038330078 240 C 87.02568054199219 240 81.05699920654297 239.3984680175781 75.25936889648438 238.2120513916016 C 69.61163330078125 237.0563659667969 64.05631256103516 235.3318939208984 58.7477912902832 233.0865783691406 C 53.53452682495117 230.8815307617188 48.50594711303711 228.1520538330078 43.80173873901367 224.9739532470703 C 39.14094924926758 221.8251647949219 34.7579460144043 218.2087860107422 30.77457809448242 214.2253723144531 C 26.79115867614746 210.241943359375 23.17484283447266 205.8589935302734 20.02605247497559 201.1981506347656 C 16.84794807434082 196.4939422607422 14.11847400665283 191.4653625488281 11.91342067718506 186.2521057128906 C 9.668105125427246 180.9435729980469 7.943631649017334 175.3882598876953 6.787947177886963 169.7405242919922 C 5.601526260375977 163.9428405761719 5 157.9741516113281 5 152.0002593994141 C 5 140.3973083496094 7.221158027648926 129.1241607666016 11.6017894744873 118.493896484375 C 13.70878982543945 113.3808975219727 16.31947326660156 108.4371032714844 19.36120986938477 103.7997894287109 C 22.37368392944336 99.20720672607422 25.83789443969727 94.87084197998047 29.65763092041016 90.91110229492188 C 33.47410583496094 86.95473480224609 37.68015670776367 83.33842468261719 42.1589469909668 80.16262817382813 C 46.67373657226563 76.96126556396484 51.50889587402344 74.17710876464844 56.53005218505859 71.88752746582031 C 66.94773864746094 67.13716125488281 78.06547546386719 64.50557708740234 89.57447052001953 64.06584167480469 L 92.84442138671875 63.94089508056641 L 94.03868103027344 60.89426422119141 C 97.21578979492188 52.78936767578125 101.5815277099609 45.20679092407227 107.0146331787109 38.35715866088867 C 112.4023666381836 31.56468391418457 118.7417373657227 25.61468505859375 125.8566284179688 20.6723690032959 C 140.6167907714844 10.41942119598389 157.9561004638672 5 176.0001525878906 5 C 185.64599609375 5 195.1247406005859 6.549263000488281 204.1731109619141 9.604789733886719 C 212.9222564697266 12.55921077728271 221.1280059814453 16.86910438537598 228.5623626708984 22.41473770141602 C 235.9149932861328 27.89936828613281 242.3447418212891 34.46463012695313 247.6729431152344 41.92826461791992 C 253.0690460205078 49.48694610595703 257.2091674804688 57.79378890991211 259.9781494140625 66.61810302734375 L 261.5704345703125 71.6922607421875 L 266.5368347167969 69.79047393798828 C 276.5699462890625 65.94841766357422 287.155517578125 64.0003662109375 297.99951171875 64.0003662109375 C 303.9735412597656 64.0003662109375 309.9423217773438 64.60189819335938 315.7400512695313 65.78831481933594 C 321.3879089355469 66.94400024414063 326.9432678222656 68.66847229003906 332.2518310546875 70.91384124755859 C 337.4651489257813 73.11884307861328 342.4937744140625 75.84836578369141 347.1980590820313 79.02647399902344 C 351.85888671875 82.17526245117188 356.2418823242188 85.79158020019531 360.2253112792969 89.77500152587891 C 364.2088012695313 93.75847625732422 367.8251037597656 98.14147186279297 370.9739379882813 102.8022613525391 C 374.1520385742188 107.506477355957 376.8815307617188 112.5351028442383 379.0865783691406 117.7483673095703 C 381.3319091796875 123.0568923950195 383.0563659667969 128.6122131347656 384.2120666503906 134.2599945068359 C 385.3984680175781 140.0576324462891 386 146.0263214111328 386 152.0002593994141 C 386 157.9741516113281 385.3984680175781 163.9428405761719 384.2120666503906 169.7405242919922 C 383.0563659667969 175.3882598876953 381.3319091796875 180.9435729980469 379.0865783691406 186.2521057128906 C 376.8815307617188 191.4653625488281 374.1520385742188 196.4939422607422 370.9739379882813 201.1981506347656 C 367.8251037597656 205.8589477539063 364.2088012695313 210.241943359375 360.2253723144531 214.2253723144531 C 356.2418823242188 218.2087860107422 351.85888671875 221.8251647949219 347.1980590820313 224.9739532470703 C 342.4937744140625 228.1520538330078 337.4651489257813 230.8815307617188 332.2518310546875 233.0865783691406 C 326.9432678222656 235.3318939208984 321.3879089355469 237.0563659667969 315.7400512695313 238.2120513916016 C 309.9423217773438 239.3984680175781 303.9735412597656 240 297.99951171875 240 Z" stroke="none"/>
        <path d="M 297.9995422363281 235 C 343.76611328125 235 381 197.7664642333984 381 152.0002288818359 C 381 106.2339401245117 343.76611328125 69.00035095214844 297.9995422363281 69.00035095214844 C 287.7690734863281 69.00035095214844 277.7850646972656 70.83717346191406 268.3248901367188 74.45982360839844 L 258.3919982910156 78.26347351074219 L 255.2074737548828 68.11511993408203 C 244.2998199462891 33.35464859008789 212.4688873291016 10 176.0001831054688 10 C 141.5922393798828 10 111.2477035522461 30.6934700012207 98.69382476806641 62.71905899047852 L 96.3052978515625 68.81229400634766 L 89.76535034179688 69.06217956542969 C 45.03711700439453 70.7711181640625 10 107.2018814086914 10 152.0002288818359 C 10 197.7664642333984 47.23347091674805 235 92.99958801269531 235 C 107.592529296875 235 121.9407043457031 231.162353515625 134.4929351806641 223.9019927978516 L 139.4998168945313 221.0059967041016 L 144.5066986083984 223.9019927978516 C 157.0589447021484 231.162353515625 171.4071197509766 235 186.0000610351563 235 C 204.2077026367188 235 221.4880065917969 229.2171173095703 235.9727020263672 218.2765350341797 L 241.9998168945313 213.72412109375 L 248.0269470214844 218.2765350341797 C 262.5116577148438 229.2171173095703 279.7918701171875 235 297.9995422363281 235 M 297.9995422363281 245 C 276.9738159179688 245 257.5770568847656 238.0219421386719 241.9998168945313 226.2561187744141 C 226.4225311279297 238.0219421386719 207.0257720947266 245 186.0000610351563 245 C 169.0619354248047 245 153.1781768798828 240.4700012207031 139.4998168945313 232.5582885742188 C 125.8214721679688 240.4700012207031 109.9377059936523 245 92.99958801269531 245 C 41.63753128051758 245 0 203.3623504638672 0 152.0002288818359 C 0 101.8481140136719 39.69629287719727 60.9678840637207 89.38359069824219 59.0694694519043 C 102.9401779174805 24.48594093322754 136.6096496582031 0 176.0001831054688 0 C 217.6503601074219 0 252.9052429199219 27.37817573547363 264.748779296875 65.12111663818359 C 275.0733642578125 61.1674690246582 286.284423828125 59.0003547668457 297.9995422363281 59.0003547668457 C 349.3624572753906 59.0003547668457 391 100.6380615234375 391 152.0002288818359 C 391 203.3623504638672 349.3624572753906 245 297.9995422363281 245 Z" stroke="none" fill="#231f20"/>
      </g>
    </g>
  </g>
</svg>
