<svg xmlns="http://www.w3.org/2000/svg" width="2126" height="1460" viewBox="0 0 2126 1460">
  <g id="Polygon_1" data-name="Polygon 1" fill="#13ffbf">
    <path d="M 2033.642333984375 1452.5 L 92.35762786865234 1452.5 C 77.19210815429688 1452.5 64.03184509277344 1444.430786132813 57.15368270874023 1430.9150390625 C 50.27552795410156 1417.39892578125 51.49842071533203 1402.01025390625 60.42473602294922 1389.750244140625 L 1031.067138671875 56.60079574584961 C 1038.586303710938 46.2734260559082 1050.225219726563 40.35053253173828 1063 40.35053253173828 C 1075.7744140625 40.35053253173828 1087.413452148438 46.2734260559082 1094.9326171875 56.60079574584961 L 2065.5751953125 1389.750244140625 C 2074.50146484375 1402.01025390625 2075.724365234375 1417.39892578125 2068.846435546875 1430.9150390625 C 2061.96826171875 1444.430786132813 2048.807861328125 1452.5 2033.642333984375 1452.5 Z" stroke="none"/>
    <path d="M 1062.999755859375 47.8504638671875 C 1052.65087890625 47.8504638671875 1043.2216796875 52.6488037109375 1037.130249023438 61.01513671875 L 66.488037109375 1394.16455078125 C 59.256591796875 1404.096801757813 58.265869140625 1416.563720703125 63.838134765625 1427.51318359375 C 69.41015625 1438.462890625 80.0716552734375 1444.999877929688 92.3575439453125 1444.999877929688 L 2033.642456054688 1444.999877929688 C 2045.928344726563 1444.999877929688 2056.58984375 1438.462890625 2062.161865234375 1427.51318359375 C 2067.734130859375 1416.563720703125 2066.743408203125 1404.097045898438 2059.511962890625 1394.16455078125 L 1088.869384765625 61.015380859375 C 1082.778076171875 52.6488037109375 1073.3486328125 47.8504638671875 1062.999755859375 47.8504638671875 M 1062.999877929688 32.8504638671875 C 1077.30517578125 32.8504638671875 1091.610473632813 39.295654296875 1100.995849609375 52.186279296875 L 2071.638427734375 1385.335693359375 C 2094.254638671875 1416.398803710938 2072.06640625 1459.999877929688 2033.642456054688 1459.999877929688 L 92.3575439453125 1459.999877929688 C 53.933837890625 1459.999877929688 31.745361328125 1416.398803710938 54.361572265625 1385.335693359375 L 1025.00390625 52.186279296875 C 1034.389282226563 39.295654296875 1048.694580078125 32.8504638671875 1062.999877929688 32.8504638671875 Z" stroke="none" fill="#231f20"/>
  </g>
</svg>
