<svg xmlns="http://www.w3.org/2000/svg" width="563.851" height="487.452" viewBox="0 0 563.851 487.452">
  <g id="Group_65" data-name="Group 65" transform="translate(11.868 -1.611)">
    <g id="Group_58" data-name="Group 58">
      <g id="Group_54" data-name="Group 54">
        <path id="Path_100" data-name="Path 100" d="M126.094,317.339,5.712,238.233A23.27,23.27,0,0,1-4.681,218.418l1.634-88.438A20.462,20.462,0,0,1,28.73,113.312l121.858,74.261c1.246.827-.9,4.241-1.633,5.511-26.228,45.262-23.626,81.544-19.916,104.463C130.723,308.569,129.952,319.9,126.094,317.339Z" fill="#fff"/>
        <path id="Path_101" data-name="Path 101" d="M127.146,324.882a9.079,9.079,0,0,1-5.013-1.55L1.768,244.237a30.329,30.329,0,0,1-13.631-25.951l1.634-88.439a27.285,27.285,0,0,1,14.8-23.972,27.283,27.283,0,0,1,28.009,1.371l121.981,74.342c3.111,2.065,5.771,6.312.771,14.823l-.16.273C130.8,238.749,132.192,272.07,136.13,296.4c1.55,10.141,2.027,23.022-4.451,27.157A8.4,8.4,0,0,1,127.146,324.882ZM17.43,117.052a13.288,13.288,0,0,0-6.186,1.547,13.106,13.106,0,0,0-7.109,11.515L2.5,218.552a16.015,16.015,0,0,0,7.185,13.7L122.676,306.5a65.419,65.419,0,0,0-.738-7.865c-3.937-24.318-6.111-61.939,20.07-107.876L24.756,119.3A13.2,13.2,0,0,0,17.43,117.052Z" fill="#231f20"/>
      </g>
      <g id="Group_55" data-name="Group 55">
        <line id="Line_18" data-name="Line 18" x2="68.198" y2="45.287" transform="translate(0.205 124.606)" fill="#fff"/>
        <path id="Path_102" data-name="Path 102" d="M68.4,177.078a7.139,7.139,0,0,1-3.967-1.2l-68.2-45.288a7.183,7.183,0,1,1,7.948-11.967l68.2,45.288A7.184,7.184,0,0,1,68.4,177.078Z" fill="#231f20"/>
      </g>
      <g id="Group_56" data-name="Group 56">
        <line id="Line_19" data-name="Line 19" x2="66.23" y2="43.98" transform="translate(-3.233 162.19)" fill="#fff"/>
        <path id="Path_103" data-name="Path 103" d="M62.991,213.356a7.139,7.139,0,0,1-3.967-1.2l-66.231-43.98a7.183,7.183,0,0,1-2.009-9.957,7.18,7.18,0,0,1,9.958-2.011l66.23,43.98a7.185,7.185,0,0,1-3.981,13.169Z" fill="#231f20"/>
      </g>
      <g id="Group_57" data-name="Group 57">
        <line id="Line_20" data-name="Line 20" x2="57.305" y2="38.054" transform="translate(-4.384 202.365)" fill="#fff"/>
        <path id="Path_104" data-name="Path 104" d="M52.915,247.6a7.152,7.152,0,0,1-3.968-1.2l-57.3-38.054a7.182,7.182,0,0,1-2.01-9.957A7.18,7.18,0,0,1-.41,196.381L56.9,234.435a7.185,7.185,0,0,1-3.98,13.169Z" fill="#231f20"/>
      </g>
    </g>
    <g id="Group_63" data-name="Group 63">
      <g id="Group_59" data-name="Group 59">
        <path id="Path_105" data-name="Path 105" d="M414.019,317.372,534.4,238.266a23.268,23.268,0,0,0,10.393-19.815l-1.634-88.438a20.461,20.461,0,0,0-31.777-16.667l-121.859,74.26c-1.245.827.9,4.242,1.633,5.511,26.229,45.263,23.627,81.544,19.917,104.463C409.391,308.6,410.162,319.934,414.019,317.372Z" fill="#fff"/>
        <path id="Path_106" data-name="Path 106" d="M412.968,324.915a9.079,9.079,0,0,0,5.013-1.55L538.346,244.27a30.331,30.331,0,0,0,13.631-25.95l-1.634-88.44a27.645,27.645,0,0,0-42.809-22.6L385.553,181.621c-3.112,2.065-5.771,6.312-.771,14.823l.159.273c24.376,42.066,22.981,75.386,19.043,99.716-1.55,10.141-2.027,23.022,4.451,27.156A8.386,8.386,0,0,0,412.968,324.915Zm109.715-207.83a13.289,13.289,0,0,1,6.187,1.547,13.106,13.106,0,0,1,7.109,11.515l1.634,88.438a16.013,16.013,0,0,1-7.186,13.7L417.437,306.53a65.641,65.641,0,0,1,.739-7.865c3.937-24.317,6.111-61.939-20.07-107.875l117.252-71.46A13.2,13.2,0,0,1,522.683,117.085Z" fill="#231f20"/>
      </g>
      <g id="Group_60" data-name="Group 60">
        <line id="Line_21" data-name="Line 21" x1="68.198" y2="45.287" transform="translate(471.711 124.639)" fill="#fff"/>
        <path id="Path_107" data-name="Path 107" d="M471.717,177.112a7.152,7.152,0,0,0,3.968-1.2l68.2-45.288a7.183,7.183,0,1,0-7.948-11.968l-68.2,45.288a7.185,7.185,0,0,0,3.98,13.169Z" fill="#231f20"/>
      </g>
      <g id="Group_61" data-name="Group 61">
        <line id="Line_22" data-name="Line 22" x1="66.23" y2="43.98" transform="translate(477.116 162.224)" fill="#fff"/>
        <path id="Path_108" data-name="Path 108" d="M477.122,213.389a7.142,7.142,0,0,0,3.968-1.2l66.23-43.98a7.183,7.183,0,0,0-7.948-11.968l-66.23,43.981a7.184,7.184,0,0,0,3.98,13.168Z" fill="#231f20"/>
      </g>
      <g id="Group_62" data-name="Group 62">
        <line id="Line_23" data-name="Line 23" x1="57.305" y2="38.054" transform="translate(487.193 202.398)" fill="#fff"/>
        <path id="Path_109" data-name="Path 109" d="M487.2,247.637a7.152,7.152,0,0,0,3.968-1.2l57.3-38.054a7.183,7.183,0,0,0-7.948-11.968l-57.3,38.054a7.185,7.185,0,0,0,3.98,13.169Z" fill="#231f20"/>
      </g>
    </g>
    <g id="Group_64" data-name="Group 64">
      <rect id="Rectangle_65" data-name="Rectangle 65" width="365.267" height="365.267" rx="182.633" transform="translate(451.687 451.734) rotate(180)" fill="#ffdb06" stroke="#231f20" stroke-miterlimit="10" stroke-width="15"/>
    </g>
    <path id="Path_110" data-name="Path 110" d="M359.4,241.093c-19.556-15.241-45.859-18.329-45.859-18.329s-26.9-8.69-44.491-8.69c-17.685,0-33.6,3.385-44.668,8.779,0,0-26.126,3-45.681,18.24s-13.334,77.166-13.334,77.166,4.148,86.222,8.593,97.482,24.3,12.148,24.3,12.148,1.514-115.556,10.239-127.111c0,0,4.28,40,2.8,77.926s-2.8,53.926-2.8,53.926,33.868,15.111,60.555,10.074c26.688,5.037,60.556-10.074,60.556-10.074s-1.317-16-2.8-53.926,2.8-77.926,2.8-77.926c8.724,11.555,10.238,127.111,10.238,127.111s19.852-.889,24.3-12.148,8.592-97.482,8.592-97.482S378.958,256.333,359.4,241.093Z" fill="#001fff" stroke="#231f20" stroke-miterlimit="10" stroke-width="5"/>
    <circle id="Ellipse_68" data-name="Ellipse 68" cx="16" cy="16" r="16" transform="translate(292.518 136.819)" fill="#ffdfc5" stroke="#231f20" stroke-miterlimit="10" stroke-width="5" style="isolation: isolate"/>
    <circle id="Ellipse_69" data-name="Ellipse 69" cx="16" cy="16" r="16" transform="translate(214.259 133.815)" fill="#ffdfc5" stroke="#231f20" stroke-miterlimit="10" stroke-width="5" style="isolation: isolate"/>
    <path id="Path_111" data-name="Path 111" d="M242.052,275.677h12.5L248.3,286.5l-6.249,10.824L235.8,286.5l-6.249-10.824Z" fill="#fff" opacity="0.3"/>
    <path id="Path_112" data-name="Path 112" d="M269.053,275.677h12.5L275.3,286.5l-6.249,10.824L262.8,286.5l-6.249-10.824Z" fill="#fff" opacity="0.3"/>
    <path id="Path_113" data-name="Path 113" d="M296.055,275.677h12.5L302.3,286.5l-6.249,10.824L289.806,286.5l-6.249-10.824Z" fill="#fff" opacity="0.3"/>
    <path id="Path_114" data-name="Path 114" d="M242.052,329.163h12.5L248.3,339.987l-6.249,10.824L235.8,339.987l-6.249-10.824Z" fill="#fff" opacity="0.3"/>
    <path id="Path_115" data-name="Path 115" d="M269.053,329.163h12.5L275.3,339.987l-6.249,10.824L262.8,339.987l-6.249-10.824Z" fill="#fff" opacity="0.3"/>
    <path id="Path_116" data-name="Path 116" d="M296.055,329.163h12.5L302.3,339.987l-6.249,10.824-6.249-10.824-6.249-10.824Z" fill="#fff" opacity="0.3"/>
    <path id="Path_117" data-name="Path 117" d="M228.551,297.217h13.5l-6.75,11.692-6.75,11.692-6.75-11.692-6.75-11.692Z" fill="#fff" opacity="0.3"/>
    <path id="Path_118" data-name="Path 118" d="M255.552,297.217h13.5l-6.75,11.692-6.75,11.692-6.75-11.692-6.75-11.692Z" fill="#fff" opacity="0.3"/>
    <path id="Path_119" data-name="Path 119" d="M282.554,297.217h13.5l-6.75,11.692-6.75,11.692-6.75-11.692-6.75-11.692Z" fill="#fff" opacity="0.3"/>
    <path id="Path_120" data-name="Path 120" d="M309.556,297.217h13.5l-6.75,11.692-6.75,11.692-6.75-11.692-6.75-11.692Z" fill="#fff" opacity="0.3"/>
    <path id="Path_121" data-name="Path 121" d="M228.551,350.811h13.5L235.3,362.5l-6.75,11.692L221.8,362.5l-6.75-11.692Z" fill="#fff" opacity="0.3"/>
    <path id="Path_122" data-name="Path 122" d="M255.552,350.811h13.5L262.3,362.5l-6.75,11.692L248.8,362.5l-6.75-11.692Z" fill="#fff" opacity="0.3"/>
    <path id="Path_123" data-name="Path 123" d="M282.554,350.811h13.5L289.3,362.5l-6.75,11.692L275.8,362.5l-6.75-11.692Z" fill="#fff" opacity="0.3"/>
    <path id="Path_124" data-name="Path 124" d="M309.556,350.811h13.5l-6.75,11.692-6.75,11.692-6.75-11.692-6.75-11.692Z" fill="#fff" opacity="0.3"/>
    <path id="Path_125" data-name="Path 125" d="M242.234,382.648h12.5l-6.249,10.824L242.234,404.3l-6.249-10.824-6.249-10.824Z" fill="#fff" opacity="0.3"/>
    <path id="Path_126" data-name="Path 126" d="M269.236,382.648h12.5l-6.249,10.824L269.236,404.3l-6.249-10.824-6.249-10.824Z" fill="#fff" opacity="0.3"/>
    <path id="Path_127" data-name="Path 127" d="M296.237,382.648h12.5l-6.249,10.824L296.237,404.3l-6.249-10.824-6.249-10.824Z" fill="#fff" opacity="0.3"/>
    <path id="Path_128" data-name="Path 128" d="M228.733,404.3h13.5l-6.75,11.692-6.75,11.692-6.75-11.692-6.75-11.692Z" fill="#fff" opacity="0.3"/>
    <path id="Path_129" data-name="Path 129" d="M255.735,404.3h13.5l-6.75,11.692-6.75,11.692-6.75-11.692-6.75-11.692Z" fill="#fff" opacity="0.3"/>
    <path id="Path_130" data-name="Path 130" d="M282.737,404.3h13.5l-6.75,11.692-6.75,11.692-6.75-11.692-6.75-11.692Z" fill="#fff" opacity="0.3"/>
    <path id="Path_131" data-name="Path 131" d="M309.738,404.3h13.5l-6.75,11.692-6.75,11.692-6.75-11.692-6.75-11.692Z" fill="#fff" opacity="0.3"/>
    <path id="Path_132" data-name="Path 132" d="M307.808,225.261c-13.333-8.667-14.106-38.52-14.106-38.52l-24.5,12.887-24.628-8.964s-.578,25.93-13.911,34.6c0,0,7.018,20.939,38.39,20.884v0c.063,0,.121,0,.183,0s.12,0,.182,0v0C300.79,246.2,307.808,225.261,307.808,225.261Z" fill="#ffdfc5" stroke="#231f20" stroke-miterlimit="10" stroke-width="5" style="isolation: isolate"/>
    <path id="Path_133" data-name="Path 133" d="M244.574,190.664l49.128-3.923s.548,15.148,5,25.937C301.191,218.7,243.777,220.847,244.574,190.664Z" opacity="0.1"/>
    <path id="Path_134" data-name="Path 134" d="M293.7,186.741s-9.008,8.87-14.659,11.784c0,0,6.556-1.138,14.812-9.276Z" opacity="0.25"/>
    <path id="Path_135" data-name="Path 135" d="M266.778,200.778c-6.222.052-28.815-5.251-33.556-32.626s-4.841-57.98-4.841-57.98h80.137s7.631,51.167-10.735,72.087C282.111,200.111,275.677,200.7,266.778,200.778Z" fill="#ffdfc5" stroke="#231f20" stroke-miterlimit="10" stroke-width="5" style="isolation: isolate"/>
    <path id="Path_136" data-name="Path 136" d="M236.333,118.416s11.111,15.251,27.334,20.806,44.624-1.333,46.423,18.445c0,0,7.6-2.173,14.255-12.087s21.766-60.8-16.9-75.469S241,65,235,77.667c0,0-7-3.445-9.222-.556s-29.445,21.222-13.667,57.667,19.7,27.333,19.7,27.333S227.667,121.165,236.333,118.416Z" fill="#684116" stroke="#231f20" stroke-miterlimit="10" stroke-width="5" style="isolation: isolate"/>
    <path id="Path_137" data-name="Path 137" d="M232.057,64.257s-3.527-6.371,3.021-9.843c0,0,6.682.695,5.062,1.554S231.031,58.131,232.057,64.257Z" fill="#684116" stroke="#231f20" stroke-linecap="round" stroke-linejoin="round" stroke-width="1" style="isolation: isolate"/>
    <path id="Path_138" data-name="Path 138" d="M232.283,68.6s-3.227-5.061-7.71-4.25a.117.117,0,0,0-.094.115l.1,3.443a.244.244,0,0,0,.442.14C225.794,66.982,227.81,65.516,232.283,68.6Z" fill="#684116" stroke="#231f20" stroke-linecap="round" stroke-linejoin="round" stroke-width="1" style="isolation: isolate"/>
    <path id="Path_139" data-name="Path 139" d="M262.778,163.123s4.555,8.2,10.222-.142" fill="none" stroke="#231f20" stroke-linecap="round" stroke-linejoin="round" stroke-width="2"/>
    <path id="Path_140" data-name="Path 140" d="M255.207,175.836s14.02,9.213,28.057-4.783" fill="none" stroke="#231f20" stroke-linecap="round" stroke-linejoin="round" stroke-width="3"/>
    <circle id="Ellipse_70" data-name="Ellipse 70" cx="3.815" cy="3.815" r="3.815" transform="translate(247.667 142.074)" fill="#240e00"/>
    <circle id="Ellipse_71" data-name="Ellipse 71" cx="3.815" cy="3.815" r="3.815" transform="translate(284.889 144.115)" fill="#240e00"/>
    <circle id="Ellipse_72" data-name="Ellipse 72" cx="21.037" cy="21.037" r="21.037" transform="translate(7.365 316.335)" fill="#001fff" stroke="#231f20" stroke-miterlimit="10" stroke-width="5"/>
    <circle id="Ellipse_73" data-name="Ellipse 73" cx="10.519" cy="10.519" r="10.519" transform="translate(86.365 4.111)" fill="#ffdb06" stroke="#231f20" stroke-miterlimit="10" stroke-width="5"/>
    <circle id="Ellipse_74" data-name="Ellipse 74" cx="34.831" cy="34.831" r="34.831" transform="translate(451.546 416.9)" fill="#08ffad" stroke="#231f20" stroke-miterlimit="10" stroke-width="5"/>
    <circle id="Ellipse_75" data-name="Ellipse 75" cx="13.361" cy="13.361" r="13.361" transform="translate(437.961 66.26)" fill="#ff08d1" stroke="#231f20" stroke-miterlimit="10" stroke-width="5"/>
    <ellipse id="Ellipse_76" data-name="Ellipse 76" cx="5.321" cy="2.741" rx="5.321" ry="2.741" transform="translate(243.161 154.734)" fill="#f70f0f" opacity="0.1"/>
    <ellipse id="Ellipse_77" data-name="Ellipse 77" cx="5.321" cy="2.741" rx="5.321" ry="2.741" transform="translate(286.383 155.667)" fill="#f70f0f" opacity="0.1"/>
    <path id="Path_141" data-name="Path 141" d="M356.333,283c-20.74-10.074,4.889-25-7.555-33s-23.239-10.2-35.556,11.667S326.5,374.8,301.768,394.717a145.283,145.283,0,0,0-19.225,18.236,5.434,5.434,0,0,1-8.715-.6c-3.924-6.131-11.652-12.641-25.559-18.886-28.965-13.006-6.432-64.31-18.748-86.176s4.968-36.148-7.476-28.148-22.962-1.926-35.7,26.519c-8.276,18.476-2.019,97.009-.369,115.891a5.434,5.434,0,0,0,4.4,4.865l1.335.255a5.445,5.445,0,0,0,6.461-5.241c.507-24.84,1.3-44.611,2.22-60.336.413-7.049,10.931-6.7,10.875.358-.236,29.8-2.045,58.029-2.724,67.672a5.4,5.4,0,0,0,3.072,5.285c19.6,9.183,57.41,6.849,57.41,6.849s.067-.06.187-.174c.016.114.028.174.028.174s37.874.14,57.458-9.317a5.406,5.406,0,0,0,3.025-5.261c-.677-9.622-2.489-37.871-2.725-67.7-.056-7.062,10.461-7.408,10.875-.358.921,15.725,1.712,35.5,2.22,60.336a5.445,5.445,0,0,0,6.461,5.241l1.72-.329a5.429,5.429,0,0,0,4.329-4.352C356.489,398.354,375,292.066,356.333,283Z" fill="#231f20" opacity="0.1"/>
    <path id="Path_142" data-name="Path 142" d="M252.8,71.754s17.556-6.111,26.223-1.333,16.111,7.889,20.666,7.333c0,0-8.444,3.667-15.889-.444S263.134,70.088,252.8,71.754Z" fill="#fff" opacity="0.35"/>
    <path id="Path_143" data-name="Path 143" d="M217.027,99.069s-9.518,8.264-3.594,22.206Z" fill="#fff" opacity="0.35"/>
  </g>
</svg>
