<svg xmlns="http://www.w3.org/2000/svg" xmlns:xlink="http://www.w3.org/1999/xlink" width="2746" height="2280" viewBox="0 0 2746 2280">
  <defs>
    <filter id="Union_1" x="1659.5" y="76.5" width="412" height="266" filterUnits="userSpaceOnUse">
      <feOffset dy="10" input="SourceAlpha"/>
      <feGaussianBlur stdDeviation="3.5" result="blur"/>
      <feFlood flood-opacity="0.161"/>
      <feComposite operator="in" in2="blur"/>
      <feComposite in="SourceGraphic"/>
    </filter>
    <filter id="Union_2" x="532.5" y="454.5" width="412" height="266" filterUnits="userSpaceOnUse">
      <feOffset dy="10" input="SourceAlpha"/>
      <feGaussianBlur stdDeviation="3.5" result="blur-2"/>
      <feFlood flood-opacity="0.161"/>
      <feComposite operator="in" in2="blur-2"/>
      <feComposite in="SourceGraphic"/>
    </filter>
    <filter id="Union_3" x="1781.499" y="1242.5" width="412" height="266" filterUnits="userSpaceOnUse">
      <feOffset dy="10" input="SourceAlpha"/>
      <feGaussianBlur stdDeviation="3.5" result="blur-3"/>
      <feFlood flood-opacity="0.161"/>
      <feComposite operator="in" in2="blur-3"/>
      <feComposite in="SourceGraphic"/>
    </filter>
  </defs>
  <g id="Group_72" data-name="Group 72" transform="translate(403 -306)">
    <g id="Ellipse_44" data-name="Ellipse 44" transform="translate(140 306)" fill="#ffdb06" stroke="#231f20" stroke-width="10">
      <circle cx="820" cy="820" r="820" stroke="none"/>
      <circle cx="820" cy="820" r="815" fill="none"/>
    </g>
    <g id="Polygon_2" data-name="Polygon 2" transform="translate(-403 1742)" fill="#38bc94">
      <path d="M 1313.317993164063 836.5 L 100.681999206543 836.5 C 85.16727447509766 836.5 71.45254516601563 827.7667846679688 64.88981628417969 813.7083740234375 C 58.32709121704102 799.6500244140625 60.43927383422852 783.528564453125 70.40200042724609 771.6353149414063 L 676.719970703125 47.82711791992188 C 684.2449340820313 38.84384536743164 695.2814331054688 33.69184494018555 707 33.69184494018555 C 718.7183837890625 33.69184494018555 729.7548828125 38.84384536743164 737.280029296875 47.82711791992188 L 1343.598022460938 771.6353149414063 C 1353.560668945313 783.5283813476563 1355.6728515625 799.6498413085938 1349.110229492188 813.7083740234375 C 1342.547485351563 827.7667846679688 1328.832763671875 836.5 1313.317993164063 836.5 Z" stroke="none"/>
      <path d="M 707 41.19183349609375 C 697.5065307617188 41.19183349609375 688.5656127929688 45.36566162109375 682.469482421875 52.64312744140625 L 76.1514892578125 776.4512939453125 C 67.9580078125 786.232421875 66.2886962890625 798.974365234375 71.685791015625 810.5360107421875 C 77.0828857421875 822.0974731445313 87.9227294921875 829 100.6820068359375 829 L 1313.317993164063 829 C 1326.077270507813 829 1336.916870117188 822.0974731445313 1342.31396484375 810.5360107421875 C 1347.711303710938 798.9742431640625 1346.041870117188 786.232177734375 1337.848388671875 776.4511108398438 L 731.530517578125 52.64312744140625 C 725.4343872070313 45.36566162109375 716.4932861328125 41.19183349609375 707 41.19183349609375 M 706.9999389648438 26.19183349609375 C 720.3182983398438 26.19183349609375 733.6366577148438 31.7982177734375 743.029296875 43.01092529296875 L 1349.347045898438 766.8189697265625 C 1374.971801757813 797.4091186523438 1353.222534179688 844 1313.317993164063 844 L 100.6820068359375 844 C 60.7772216796875 844 39.0279541015625 797.4093017578125 64.6527099609375 766.819091796875 L 670.970703125 43.01092529296875 C 680.36328125 31.7982177734375 693.6815795898438 26.19183349609375 706.9999389648438 26.19183349609375 Z" stroke="none" fill="#231f20"/>
    </g>
    <g id="Polygon_3" data-name="Polygon 3" transform="translate(582 1441)" fill="#38bca1">
      <path d="M 1665.5673828125 1137.500122070313 L 95.43276214599609 1137.500122070313 C 80.04341888427734 1137.500122070313 66.79646301269531 1129.257690429688 59.99711227416992 1115.451904296875 C 53.1977653503418 1101.64599609375 54.73928833007813 1086.120483398438 64.12059020996094 1073.921142578125 L 849.187744140625 53.02162933349609 C 856.7240600585938 43.22141265869141 868.1369018554688 37.60054397583008 880.4999389648438 37.60054397583008 C 892.8629760742188 37.60054397583008 904.2758178710938 43.22141265869141 911.8121337890625 53.02162933349609 L 1696.879272460938 1073.921142578125 C 1706.260620117188 1086.120483398438 1707.802124023438 1101.64599609375 1701.002807617188 1115.451904296875 C 1694.203369140625 1129.257690429688 1680.956665039063 1137.500122070313 1665.5673828125 1137.500122070313 Z" stroke="none"/>
      <path d="M 880.4999389648438 45.1004638671875 C 870.4842529296875 45.1004638671875 861.2385864257813 49.6539306640625 855.1331176757813 57.5933837890625 L 70.0657958984375 1078.492919921875 C 62.4658203125 1088.376220703125 61.2171630859375 1100.95361328125 66.725341796875 1112.13818359375 C 72.2337646484375 1123.32275390625 82.9654541015625 1130 95.4326171875 1130 L 1665.567260742188 1130 C 1678.034423828125 1130 1688.76611328125 1123.32275390625 1694.274536132813 1112.13818359375 C 1699.78271484375 1100.95361328125 1698.534057617188 1088.376220703125 1690.93408203125 1078.492919921875 L 905.8667602539063 57.5936279296875 C 899.7612915039063 49.654052734375 890.515380859375 45.1004638671875 880.4999389648438 45.1004638671875 M 880.4999389648438 30.1004638671875 C 894.4252319335938 30.1004638671875 908.3505249023438 36.216796875 917.7574462890625 48.4495849609375 L 1702.82470703125 1069.34912109375 C 1726.593627929688 1100.258178710938 1704.55859375 1145 1665.567260742188 1145 L 95.4326171875 1145 C 56.4412841796875 1145 34.40625 1100.258178710938 58.1751708984375 1069.34912109375 L 843.242431640625 48.4495849609375 C 852.6493530273438 36.216796875 866.5746459960938 30.1004638671875 880.4999389648438 30.1004638671875 Z" stroke="none" fill="#231f20"/>
    </g>
    <g transform="matrix(1, 0, 0, 1, -403, 306)" filter="url(#Union_1)">
      <g id="Union_1-2" data-name="Union 1" transform="translate(1670 77)" fill="#fff">
        <path d="M 297.99951171875 240 C 288.2615661621094 240 278.6968383789063 238.4213714599609 269.5708923339844 235.3080596923828 C 260.7477416992188 232.2979431152344 252.4854278564453 227.9101104736328 245.0133666992188 222.2663116455078 L 241.9997863769531 219.9901123046875 L 238.9862060546875 222.2663116455078 C 231.51416015625 227.9101104736328 223.2518463134766 232.2979431152344 214.4286804199219 235.3080596923828 C 205.3027954101563 238.4213714599609 195.7380065917969 240 186.0000457763672 240 C 178.1411590576172 240 170.3489990234375 238.9642181396484 162.8401031494141 236.9213714599609 C 155.5604248046875 234.9409484863281 148.5498962402344 232.0167846679688 142.0032653808594 228.2301635742188 L 139.4998474121094 226.7821502685547 L 136.9964141845703 228.2301635742188 C 130.4497833251953 232.0167846679688 123.439208984375 234.9409484863281 116.1595230102539 236.9213714599609 C 108.650634765625 238.9642181396484 100.8584747314453 240 92.99958038330078 240 C 87.02568054199219 240 81.05699920654297 239.3984680175781 75.25936889648438 238.2120513916016 C 69.61163330078125 237.0563659667969 64.05631256103516 235.3318939208984 58.7477912902832 233.0865783691406 C 53.53452682495117 230.8815307617188 48.50594711303711 228.1520538330078 43.80173873901367 224.9739532470703 C 39.14094924926758 221.8251647949219 34.7579460144043 218.2087860107422 30.77457809448242 214.2253723144531 C 26.79115867614746 210.241943359375 23.17484283447266 205.8589935302734 20.02605247497559 201.1981506347656 C 16.84794807434082 196.4939422607422 14.11847400665283 191.4653625488281 11.91342067718506 186.2521057128906 C 9.668105125427246 180.9435729980469 7.943631649017334 175.3882598876953 6.787947177886963 169.7405242919922 C 5.601526260375977 163.9428405761719 5 157.9741516113281 5 152.0002593994141 C 5 140.3973083496094 7.221158027648926 129.1241607666016 11.6017894744873 118.493896484375 C 13.70878982543945 113.3808975219727 16.31947326660156 108.4371032714844 19.36120986938477 103.7997894287109 C 22.37368392944336 99.20720672607422 25.83789443969727 94.87084197998047 29.65763092041016 90.91110229492188 C 33.47410583496094 86.95473480224609 37.68015670776367 83.33842468261719 42.1589469909668 80.16262817382813 C 46.67373657226563 76.96126556396484 51.50889587402344 74.17710876464844 56.53005218505859 71.88752746582031 C 66.94773864746094 67.13716125488281 78.06547546386719 64.50557708740234 89.57447052001953 64.06584167480469 L 92.84442138671875 63.94089508056641 L 94.03868103027344 60.89426422119141 C 97.21578979492188 52.78936767578125 101.5815277099609 45.20679092407227 107.0146331787109 38.35715866088867 C 112.4023666381836 31.56468391418457 118.7417373657227 25.61468505859375 125.8566284179688 20.6723690032959 C 140.6167907714844 10.41942119598389 157.9561004638672 5 176.0001525878906 5 C 185.64599609375 5 195.1247406005859 6.549263000488281 204.1731109619141 9.604789733886719 C 212.9222564697266 12.55921077728271 221.1280059814453 16.86910438537598 228.5623626708984 22.41473770141602 C 235.9149932861328 27.89936828613281 242.3447418212891 34.46463012695313 247.6729431152344 41.92826461791992 C 253.0690460205078 49.48694610595703 257.2091674804688 57.79378890991211 259.9781494140625 66.61810302734375 L 261.5704345703125 71.6922607421875 L 266.5368347167969 69.79047393798828 C 276.5699462890625 65.94841766357422 287.155517578125 64.0003662109375 297.99951171875 64.0003662109375 C 303.9735412597656 64.0003662109375 309.9423217773438 64.60189819335938 315.7400512695313 65.78831481933594 C 321.3879089355469 66.94400024414063 326.9432678222656 68.66847229003906 332.2518310546875 70.91384124755859 C 337.4651489257813 73.11884307861328 342.4937744140625 75.84836578369141 347.1980590820313 79.02647399902344 C 351.85888671875 82.17526245117188 356.2418823242188 85.79158020019531 360.2253112792969 89.77500152587891 C 364.2088012695313 93.75847625732422 367.8251037597656 98.14147186279297 370.9739379882813 102.8022613525391 C 374.1520385742188 107.506477355957 376.8815307617188 112.5351028442383 379.0865783691406 117.7483673095703 C 381.3319091796875 123.0568923950195 383.0563659667969 128.6122131347656 384.2120666503906 134.2599945068359 C 385.3984680175781 140.0576324462891 386 146.0263214111328 386 152.0002593994141 C 386 157.9741516113281 385.3984680175781 163.9428405761719 384.2120666503906 169.7405242919922 C 383.0563659667969 175.3882598876953 381.3319091796875 180.9435729980469 379.0865783691406 186.2521057128906 C 376.8815307617188 191.4653625488281 374.1520385742188 196.4939422607422 370.9739379882813 201.1981506347656 C 367.8251037597656 205.8589477539063 364.2088012695313 210.241943359375 360.2253723144531 214.2253723144531 C 356.2418823242188 218.2087860107422 351.85888671875 221.8251647949219 347.1980590820313 224.9739532470703 C 342.4937744140625 228.1520538330078 337.4651489257813 230.8815307617188 332.2518310546875 233.0865783691406 C 326.9432678222656 235.3318939208984 321.3879089355469 237.0563659667969 315.7400512695313 238.2120513916016 C 309.9423217773438 239.3984680175781 303.9735412597656 240 297.99951171875 240 Z" stroke="none"/>
        <path d="M 297.9995422363281 235 C 343.76611328125 235 381 197.7664642333984 381 152.0002288818359 C 381 106.2339401245117 343.76611328125 69.00035095214844 297.9995422363281 69.00035095214844 C 287.7690734863281 69.00035095214844 277.7850646972656 70.83717346191406 268.3248901367188 74.45982360839844 L 258.3919982910156 78.26347351074219 L 255.2074737548828 68.11511993408203 C 244.2998199462891 33.35464859008789 212.4688873291016 10 176.0001831054688 10 C 141.5922393798828 10 111.2477035522461 30.6934700012207 98.69382476806641 62.71905899047852 L 96.3052978515625 68.81229400634766 L 89.76535034179688 69.06217956542969 C 45.03711700439453 70.7711181640625 10 107.2018814086914 10 152.0002288818359 C 10 197.7664642333984 47.23347091674805 235 92.99958801269531 235 C 107.592529296875 235 121.9407043457031 231.162353515625 134.4929351806641 223.9019927978516 L 139.4998168945313 221.0059967041016 L 144.5066986083984 223.9019927978516 C 157.0589447021484 231.162353515625 171.4071197509766 235 186.0000610351563 235 C 204.2077026367188 235 221.4880065917969 229.2171173095703 235.9727020263672 218.2765350341797 L 241.9998168945313 213.72412109375 L 248.0269470214844 218.2765350341797 C 262.5116577148438 229.2171173095703 279.7918701171875 235 297.9995422363281 235 M 297.9995422363281 245 C 276.9738159179688 245 257.5770568847656 238.0219421386719 241.9998168945313 226.2561187744141 C 226.4225311279297 238.0219421386719 207.0257720947266 245 186.0000610351563 245 C 169.0619354248047 245 153.1781768798828 240.4700012207031 139.4998168945313 232.5582885742188 C 125.8214721679688 240.4700012207031 109.9377059936523 245 92.99958801269531 245 C 41.63753128051758 245 0 203.3623504638672 0 152.0002288818359 C 0 101.8481140136719 39.69629287719727 60.9678840637207 89.38359069824219 59.0694694519043 C 102.9401779174805 24.48594093322754 136.6096496582031 0 176.0001831054688 0 C 217.6503601074219 0 252.9052429199219 27.37817573547363 264.748779296875 65.12111663818359 C 275.0733642578125 61.1674690246582 286.284423828125 59.0003547668457 297.9995422363281 59.0003547668457 C 349.3624572753906 59.0003547668457 391 100.6380615234375 391 152.0002288818359 C 391 203.3623504638672 349.3624572753906 245 297.9995422363281 245 Z" stroke="none" fill="#231f20"/>
      </g>
    </g>
    <g transform="matrix(1, 0, 0, 1, -403, 306)" filter="url(#Union_2)">
      <g id="Union_2-2" data-name="Union 2" transform="translate(543 455)" fill="#fff">
        <path d="M 297.99951171875 240 C 288.2615661621094 240 278.6968383789063 238.4213714599609 269.5708923339844 235.3080596923828 C 260.7477416992188 232.2979431152344 252.4854278564453 227.9101104736328 245.0133666992188 222.2663116455078 L 241.9997863769531 219.9901123046875 L 238.9862060546875 222.2663116455078 C 231.51416015625 227.9101104736328 223.2518463134766 232.2979431152344 214.4286804199219 235.3080596923828 C 205.3027954101563 238.4213714599609 195.7380065917969 240 186.0000457763672 240 C 178.1411590576172 240 170.3489990234375 238.9642181396484 162.8401031494141 236.9213714599609 C 155.5604248046875 234.9409484863281 148.5498962402344 232.0167846679688 142.0032653808594 228.2301635742188 L 139.4998474121094 226.7821502685547 L 136.9964141845703 228.2301635742188 C 130.4497833251953 232.0167846679688 123.439208984375 234.9409484863281 116.1595230102539 236.9213714599609 C 108.650634765625 238.9642181396484 100.8584747314453 240 92.99958038330078 240 C 87.02568054199219 240 81.05699920654297 239.3984680175781 75.25936889648438 238.2120513916016 C 69.61163330078125 237.0563659667969 64.05631256103516 235.3318939208984 58.7477912902832 233.0865783691406 C 53.53452682495117 230.8815307617188 48.50594711303711 228.1520538330078 43.80173873901367 224.9739532470703 C 39.14094924926758 221.8251647949219 34.7579460144043 218.2087860107422 30.77457809448242 214.2253723144531 C 26.79115867614746 210.241943359375 23.17484283447266 205.8589935302734 20.02605247497559 201.1981506347656 C 16.84794807434082 196.4939422607422 14.11847400665283 191.4653625488281 11.91342067718506 186.2521057128906 C 9.668105125427246 180.9435729980469 7.943631649017334 175.3882598876953 6.787947177886963 169.7405242919922 C 5.601526260375977 163.9428405761719 5 157.9741516113281 5 152.0002593994141 C 5 140.3973083496094 7.221158027648926 129.1241607666016 11.6017894744873 118.493896484375 C 13.70878982543945 113.3808975219727 16.31947326660156 108.4371032714844 19.36120986938477 103.7997894287109 C 22.37368392944336 99.20720672607422 25.83789443969727 94.87084197998047 29.65763092041016 90.91110229492188 C 33.47410583496094 86.95473480224609 37.68015670776367 83.33842468261719 42.1589469909668 80.16262817382813 C 46.67373657226563 76.96126556396484 51.50889587402344 74.17710876464844 56.53005218505859 71.88752746582031 C 66.94773864746094 67.13716125488281 78.06547546386719 64.50557708740234 89.57447052001953 64.06584167480469 L 92.84442138671875 63.94089508056641 L 94.03868103027344 60.89426422119141 C 97.21578979492188 52.78936767578125 101.5815277099609 45.20679092407227 107.0146331787109 38.35715866088867 C 112.4023666381836 31.56468391418457 118.7417373657227 25.61468505859375 125.8566284179688 20.6723690032959 C 140.6167907714844 10.41942119598389 157.9561004638672 5 176.0001525878906 5 C 185.64599609375 5 195.1247406005859 6.549263000488281 204.1731109619141 9.604789733886719 C 212.9222564697266 12.55921077728271 221.1280059814453 16.86910438537598 228.5623626708984 22.41473770141602 C 235.9149932861328 27.89936828613281 242.3447418212891 34.46463012695313 247.6729431152344 41.92826461791992 C 253.0690460205078 49.48694610595703 257.2091674804688 57.79378890991211 259.9781494140625 66.61810302734375 L 261.5704345703125 71.6922607421875 L 266.5368347167969 69.79047393798828 C 276.5699462890625 65.94841766357422 287.155517578125 64.0003662109375 297.99951171875 64.0003662109375 C 303.9735412597656 64.0003662109375 309.9423217773438 64.60189819335938 315.7400512695313 65.78831481933594 C 321.3879089355469 66.94400024414063 326.9432678222656 68.66847229003906 332.2518310546875 70.91384124755859 C 337.4651489257813 73.11884307861328 342.4937744140625 75.84836578369141 347.1980590820313 79.02647399902344 C 351.85888671875 82.17526245117188 356.2418823242188 85.79158020019531 360.2253112792969 89.77500152587891 C 364.2088012695313 93.75847625732422 367.8251037597656 98.14147186279297 370.9739379882813 102.8022613525391 C 374.1520385742188 107.506477355957 376.8815307617188 112.5351028442383 379.0865783691406 117.7483673095703 C 381.3319091796875 123.0568923950195 383.0563659667969 128.6122131347656 384.2120666503906 134.2599945068359 C 385.3984680175781 140.0576324462891 386 146.0263214111328 386 152.0002593994141 C 386 157.9741516113281 385.3984680175781 163.9428405761719 384.2120666503906 169.7405242919922 C 383.0563659667969 175.3882598876953 381.3319091796875 180.9435729980469 379.0865783691406 186.2521057128906 C 376.8815307617188 191.4653625488281 374.1520385742188 196.4939422607422 370.9739379882813 201.1981506347656 C 367.8251037597656 205.8589477539063 364.2088012695313 210.241943359375 360.2253723144531 214.2253723144531 C 356.2418823242188 218.2087860107422 351.85888671875 221.8251647949219 347.1980590820313 224.9739532470703 C 342.4937744140625 228.1520538330078 337.4651489257813 230.8815307617188 332.2518310546875 233.0865783691406 C 326.9432678222656 235.3318939208984 321.3879089355469 237.0563659667969 315.7400512695313 238.2120513916016 C 309.9423217773438 239.3984680175781 303.9735412597656 240 297.99951171875 240 Z" stroke="none"/>
        <path d="M 297.9995422363281 235 C 343.76611328125 235 381 197.7664642333984 381 152.0002288818359 C 381 106.2339401245117 343.76611328125 69.00035095214844 297.9995422363281 69.00035095214844 C 287.7690734863281 69.00035095214844 277.7850646972656 70.83717346191406 268.3248901367188 74.45982360839844 L 258.3919982910156 78.26347351074219 L 255.2074737548828 68.11511993408203 C 244.2998199462891 33.35464859008789 212.4688873291016 10 176.0001831054688 10 C 141.5922393798828 10 111.2477035522461 30.6934700012207 98.69382476806641 62.71905899047852 L 96.3052978515625 68.81229400634766 L 89.76535034179688 69.06217956542969 C 45.03711700439453 70.7711181640625 10 107.2018814086914 10 152.0002288818359 C 10 197.7664642333984 47.23347091674805 235 92.99958801269531 235 C 107.592529296875 235 121.9407043457031 231.162353515625 134.4929351806641 223.9019927978516 L 139.4998168945313 221.0059967041016 L 144.5066986083984 223.9019927978516 C 157.0589447021484 231.162353515625 171.4071197509766 235 186.0000610351563 235 C 204.2077026367188 235 221.4880065917969 229.2171173095703 235.9727020263672 218.2765350341797 L 241.9998168945313 213.72412109375 L 248.0269470214844 218.2765350341797 C 262.5116577148438 229.2171173095703 279.7918701171875 235 297.9995422363281 235 M 297.9995422363281 245 C 276.9738159179688 245 257.5770568847656 238.0219421386719 241.9998168945313 226.2561187744141 C 226.4225311279297 238.0219421386719 207.0257720947266 245 186.0000610351563 245 C 169.0619354248047 245 153.1781768798828 240.4700012207031 139.4998168945313 232.5582885742188 C 125.8214721679688 240.4700012207031 109.9377059936523 245 92.99958801269531 245 C 41.63753128051758 245 0 203.3623504638672 0 152.0002288818359 C 0 101.8481140136719 39.69629287719727 60.9678840637207 89.38359069824219 59.0694694519043 C 102.9401779174805 24.48594093322754 136.6096496582031 0 176.0001831054688 0 C 217.6503601074219 0 252.9052429199219 27.37817573547363 264.748779296875 65.12111663818359 C 275.0733642578125 61.1674690246582 286.284423828125 59.0003547668457 297.9995422363281 59.0003547668457 C 349.3624572753906 59.0003547668457 391 100.6380615234375 391 152.0002288818359 C 391 203.3623504638672 349.3624572753906 245 297.9995422363281 245 Z" stroke="none" fill="#231f20"/>
      </g>
    </g>
    <g id="Polygon_1" data-name="Polygon 1" transform="translate(-107 1126)" fill="#13ffbf">
      <path d="M 2033.642333984375 1452.5 L 92.35762786865234 1452.5 C 77.19210815429688 1452.5 64.03184509277344 1444.430786132813 57.15368270874023 1430.9150390625 C 50.27552795410156 1417.39892578125 51.49842071533203 1402.01025390625 60.42473602294922 1389.750244140625 L 1031.067138671875 56.60079574584961 C 1038.586303710938 46.2734260559082 1050.225219726563 40.35053253173828 1063 40.35053253173828 C 1075.7744140625 40.35053253173828 1087.413452148438 46.2734260559082 1094.9326171875 56.60079574584961 L 2065.5751953125 1389.750244140625 C 2074.50146484375 1402.01025390625 2075.724365234375 1417.39892578125 2068.846435546875 1430.9150390625 C 2061.96826171875 1444.430786132813 2048.807861328125 1452.5 2033.642333984375 1452.5 Z" stroke="none"/>
      <path d="M 1062.999755859375 47.8504638671875 C 1052.65087890625 47.8504638671875 1043.2216796875 52.6488037109375 1037.130249023438 61.01513671875 L 66.488037109375 1394.16455078125 C 59.256591796875 1404.096801757813 58.265869140625 1416.563720703125 63.838134765625 1427.51318359375 C 69.41015625 1438.462890625 80.0716552734375 1444.999877929688 92.3575439453125 1444.999877929688 L 2033.642456054688 1444.999877929688 C 2045.928344726563 1444.999877929688 2056.58984375 1438.462890625 2062.161865234375 1427.51318359375 C 2067.734130859375 1416.563720703125 2066.743408203125 1404.097045898438 2059.511962890625 1394.16455078125 L 1088.869384765625 61.015380859375 C 1082.778076171875 52.6488037109375 1073.3486328125 47.8504638671875 1062.999755859375 47.8504638671875 M 1062.999877929688 32.8504638671875 C 1077.30517578125 32.8504638671875 1091.610473632813 39.295654296875 1100.995849609375 52.186279296875 L 2071.638427734375 1385.335693359375 C 2094.254638671875 1416.398803710938 2072.06640625 1459.999877929688 2033.642456054688 1459.999877929688 L 92.3575439453125 1459.999877929688 C 53.933837890625 1459.999877929688 31.745361328125 1416.398803710938 54.361572265625 1385.335693359375 L 1025.00390625 52.186279296875 C 1034.389282226563 39.295654296875 1048.694580078125 32.8504638671875 1062.999877929688 32.8504638671875 Z" stroke="none" fill="#231f20"/>
    </g>
    <g transform="matrix(1, 0, 0, 1, -403, 306)" filter="url(#Union_3)">
      <g id="Union_3-2" data-name="Union 3" transform="translate(1791 2412)" fill="#fff">
        <path d="M 298.9998474121094 -929.0003051757813 C 289.2618408203125 -929.0003051757813 279.6970520019531 -930.5789184570313 270.5711669921875 -933.6922607421875 C 261.7479858398438 -936.7023315429688 253.4856262207031 -941.0902099609375 246.0135803222656 -946.7340087890625 L 243 -949.0101928710938 L 239.9864196777344 -946.7340087890625 C 232.5143585205078 -941.0902099609375 224.2520446777344 -936.7023315429688 215.4288330078125 -933.6922607421875 C 206.3029479980469 -930.5789184570313 196.7381591796875 -929.0003051757813 187.0001983642578 -929.0003051757813 C 179.1413116455078 -929.0003051757813 171.3491516113281 -930.0360717773438 163.8402099609375 -932.0789184570313 C 156.5605163574219 -934.0593872070313 149.5499877929688 -936.9835815429688 143.0033111572266 -940.7702026367188 L 140.4998931884766 -942.2182006835938 L 137.9964752197266 -940.7702026367188 C 131.4498443603516 -936.9835815429688 124.4393081665039 -934.0593872070313 117.1595764160156 -932.0789184570313 C 109.6506805419922 -930.0360717773438 101.8585205078125 -929.0003051757813 93.99962615966797 -929.0003051757813 C 88.02573394775391 -929.0003051757813 82.05704498291016 -929.601806640625 76.25936126708984 -930.7882690429688 C 70.61162567138672 -931.9439086914063 65.05631256103516 -933.6683959960938 59.74778366088867 -935.9136962890625 C 54.53451919555664 -938.1187744140625 49.50594329833984 -940.8482666015625 44.80173110961914 -944.0263671875 C 40.14088821411133 -947.1751098632813 35.75794219970703 -950.79150390625 31.77452087402344 -954.77490234375 C 27.79109954833984 -958.75830078125 24.17473220825195 -963.1412963867188 21.02594184875488 -967.8021240234375 C 17.84783744812012 -972.50634765625 15.11836338043213 -977.534912109375 12.91331005096436 -982.7481689453125 C 10.66799449920654 -988.0567016601563 8.943520545959473 -993.6119995117188 7.787837028503418 -999.259765625 C 6.601415634155273 -1005.057373046875 5.999889373779297 -1011.026062011719 5.999889373779297 -1017 C 5.999889373779297 -1028.602905273438 8.221047401428223 -1039.876098632813 12.6016788482666 -1050.50634765625 C 14.70867919921875 -1055.619384765625 17.31936264038086 -1060.563110351563 20.36115264892578 -1065.200439453125 C 23.37357330322266 -1069.79296875 26.83783721923828 -1074.12939453125 30.65757369995117 -1078.089111328125 C 34.47404861450195 -1082.045532226563 38.68009948730469 -1085.661865234375 43.15888977050781 -1088.837646484375 C 47.67367935180664 -1092.038940429688 52.50883865356445 -1094.823120117188 57.52999496459961 -1097.112670898438 C 67.94767761230469 -1101.863037109375 79.06541442871094 -1104.49462890625 90.57447052001953 -1104.934326171875 L 93.84441375732422 -1105.059204101563 L 95.03868103027344 -1108.105834960938 C 98.21578216552734 -1116.210815429688 102.5815200805664 -1123.793334960938 108.0146255493164 -1130.642944335938 C 113.4023666381836 -1137.435424804688 119.7417831420898 -1143.385375976563 126.8567352294922 -1148.327758789063 C 141.6168823242188 -1158.580688476563 158.9562530517578 -1164.000122070313 177.0003051757813 -1164.000122070313 C 186.6461486816406 -1164.000122070313 196.1249389648438 -1162.450927734375 205.1733093261719 -1159.395385742188 C 213.9224090576172 -1156.44091796875 222.1281585693359 -1152.130981445313 229.5625762939453 -1146.58544921875 C 236.9152069091797 -1141.100830078125 243.3449401855469 -1134.535522460938 248.6732025146484 -1127.071899414063 C 254.0693054199219 -1119.51318359375 258.2093505859375 -1111.206420898438 260.9784240722656 -1102.382080078125 L 262.5706787109375 -1097.307983398438 L 267.537109375 -1099.209716796875 C 277.5700378417969 -1103.0517578125 288.1556396484375 -1104.999755859375 298.9998474121094 -1104.999755859375 C 304.9738464355469 -1104.999755859375 310.942626953125 -1104.398193359375 316.7403564453125 -1103.211791992188 C 322.3882141113281 -1102.05615234375 327.9436340332031 -1100.331665039063 333.252197265625 -1098.086303710938 C 338.4655151367188 -1095.88134765625 343.494140625 -1093.15185546875 348.1984252929688 -1089.973754882813 C 352.8592529296875 -1086.824951171875 357.2422485351563 -1083.208618164063 361.2257385253906 -1079.22509765625 C 365.2091674804688 -1075.24169921875 368.8255310058594 -1070.858764648438 371.9743041992188 -1066.197875976563 C 375.1524658203125 -1061.493774414063 377.8819274902344 -1056.465087890625 380.0870056152344 -1051.251831054688 C 382.3323059082031 -1045.943359375 384.0567932128906 -1040.388061523438 385.2124633789063 -1034.740234375 C 386.3988952636719 -1028.942626953125 387.0004272460938 -1022.973937988281 387.0004272460938 -1017 C 387.0004272460938 -1011.026062011719 386.3988952636719 -1005.057373046875 385.2124633789063 -999.259765625 C 384.0567932128906 -993.6119995117188 382.3323059082031 -988.0567016601563 380.0870056152344 -982.7481689453125 C 377.8819274902344 -977.534912109375 375.1524658203125 -972.50634765625 371.9743041992188 -967.8021240234375 C 368.8255310058594 -963.1412963867188 365.2091674804688 -958.7583618164063 361.2257385253906 -954.77490234375 C 357.2422485351563 -950.79150390625 352.8592529296875 -947.1751098632813 348.1984252929688 -944.0263671875 C 343.494140625 -940.8482666015625 338.4655151367188 -938.1187744140625 333.252197265625 -935.9136962890625 C 327.9435729980469 -933.6683959960938 322.3882141113281 -931.9439086914063 316.7403564453125 -930.7882690429688 C 310.942626953125 -929.601806640625 304.9738464355469 -929.0003051757813 298.9998474121094 -929.0003051757813 Z" stroke="none"/>
        <path d="M 298.9997863769531 -934.0003051757813 C 344.7665100097656 -934.0003051757813 382.0003967285156 -971.2338256835938 382.0003967285156 -1017 C 382.0003967285156 -1062.766235351563 344.7665100097656 -1099.999755859375 298.9997863769531 -1099.999755859375 C 288.7691650390625 -1099.999755859375 278.78515625 -1098.162963867188 269.3251647949219 -1094.540405273438 L 259.3922729492188 -1090.73681640625 L 256.2077331542969 -1100.885131835938 C 245.3000335693359 -1135.6455078125 213.4690399169922 -1159.000122070313 177.0003356933594 -1159.000122070313 C 142.5923919677734 -1159.000122070313 112.2477416992188 -1138.306640625 99.69380187988281 -1106.281127929688 L 97.30526733398438 -1100.187744140625 L 90.76532745361328 -1099.93798828125 C 46.03703308105469 -1098.229125976563 10.99991703033447 -1061.798461914063 10.99991703033447 -1017 C 10.99991703033447 -971.2338256835938 48.23344802856445 -934.0003051757813 93.99962615966797 -934.0003051757813 C 108.5925064086914 -934.0003051757813 122.9407424926758 -937.8379516601563 135.4930419921875 -945.0983276367188 L 140.4999237060547 -947.9943237304688 L 145.5068054199219 -945.0983276367188 C 158.0590362548828 -937.8379516601563 172.4072723388672 -934.0003051757813 187.0002136230469 -934.0003051757813 C 205.2079162597656 -934.0003051757813 222.4881591796875 -939.783203125 236.9728546142578 -950.7237548828125 L 242.9999694824219 -955.2761840820313 L 249.027099609375 -950.7237548828125 C 263.5118103027344 -939.783203125 280.7920837402344 -934.0003051757813 298.9997863769531 -934.0003051757813 M 298.9997863769531 -924.0003051757813 C 277.9740295410156 -924.0003051757813 258.5772705078125 -930.9783325195313 242.9999694824219 -942.7442016601563 C 227.4227447509766 -930.9783325195313 208.0259246826172 -924.0003051757813 187.0002136230469 -924.0003051757813 C 170.0620880126953 -924.0003051757813 154.1782684326172 -928.5302734375 140.4999237060547 -936.4420166015625 C 126.8215026855469 -928.5302734375 110.937744140625 -924.0003051757813 93.99962615966797 -924.0003051757813 C 42.63750457763672 -924.0003051757813 0.9999172687530518 -965.637939453125 0.9999172687530518 -1017 C 0.9999172687530518 -1067.152099609375 40.69626998901367 -1108.032348632813 90.38356781005859 -1109.9306640625 C 103.9402084350586 -1144.51416015625 137.6096801757813 -1169.000122070313 177.0003356933594 -1169.000122070313 C 218.6505126953125 -1169.000122070313 253.9054412841797 -1141.621948242188 265.7490234375 -1103.879150390625 C 276.0736083984375 -1107.832763671875 287.28466796875 -1109.999755859375 298.9997863769531 -1109.999755859375 C 350.3628540039063 -1109.999755859375 392.0003967285156 -1068.362182617188 392.0003967285156 -1017 C 392.0003967285156 -965.637939453125 350.3628540039063 -924.0003051757813 298.9997863769531 -924.0003051757813 Z" stroke="none" fill="#231f20"/>
      </g>
    </g>
  </g>
</svg>
